%FSLAX25Y25*%
%MOIN*%
G70*
G01*
G75*
G04 Layer_Color=32896*
%ADD10C,0.03000*%
%ADD11C,0.02000*%
%ADD12C,0.06000*%
G04:AMPARAMS|DCode=13|XSize=70mil|YSize=63mil|CornerRadius=0mil|HoleSize=0mil|Usage=FLASHONLY|Rotation=225.000|XOffset=0mil|YOffset=0mil|HoleType=Round|Shape=Rectangle|*
%AMROTATEDRECTD13*
4,1,4,0.00248,0.04702,0.04702,0.00248,-0.00248,-0.04702,-0.04702,-0.00248,0.00248,0.04702,0.0*
%
%ADD13ROTATEDRECTD13*%

G04:AMPARAMS|DCode=14|XSize=9.84mil|YSize=61.02mil|CornerRadius=0mil|HoleSize=0mil|Usage=FLASHONLY|Rotation=45.000|XOffset=0mil|YOffset=0mil|HoleType=Round|Shape=Round|*
%AMOVALD14*
21,1,0.05118,0.00984,0.00000,0.00000,135.0*
1,1,0.00984,0.01810,-0.01810*
1,1,0.00984,-0.01810,0.01810*
%
%ADD14OVALD14*%

G04:AMPARAMS|DCode=15|XSize=9.84mil|YSize=61.02mil|CornerRadius=0mil|HoleSize=0mil|Usage=FLASHONLY|Rotation=315.000|XOffset=0mil|YOffset=0mil|HoleType=Round|Shape=Round|*
%AMOVALD15*
21,1,0.05118,0.00984,0.00000,0.00000,45.0*
1,1,0.00984,-0.01810,-0.01810*
1,1,0.00984,0.01810,0.01810*
%
%ADD15OVALD15*%

%ADD16O,0.01181X0.05118*%
%ADD17O,0.05118X0.01181*%
%ADD18R,0.05118X0.01181*%
%ADD19O,0.08661X0.02362*%
G04:AMPARAMS|DCode=20|XSize=23.62mil|YSize=62.99mil|CornerRadius=0mil|HoleSize=0mil|Usage=FLASHONLY|Rotation=225.000|XOffset=0mil|YOffset=0mil|HoleType=Round|Shape=Rectangle|*
%AMROTATEDRECTD20*
4,1,4,-0.01392,0.03062,0.03062,-0.01392,0.01392,-0.03062,-0.03062,0.01392,-0.01392,0.03062,0.0*
%
%ADD20ROTATEDRECTD20*%

G04:AMPARAMS|DCode=21|XSize=55.12mil|YSize=66.93mil|CornerRadius=0mil|HoleSize=0mil|Usage=FLASHONLY|Rotation=225.000|XOffset=0mil|YOffset=0mil|HoleType=Round|Shape=Rectangle|*
%AMROTATEDRECTD21*
4,1,4,-0.00418,0.04315,0.04315,-0.00418,0.00418,-0.04315,-0.04315,0.00418,-0.00418,0.04315,0.0*
%
%ADD21ROTATEDRECTD21*%

%ADD22R,0.05118X0.00984*%
%ADD23O,0.05118X0.00984*%
%ADD24O,0.00984X0.05118*%
%ADD25R,0.06299X0.01181*%
%ADD26O,0.06299X0.01181*%
%ADD27R,0.09843X0.09843*%
%ADD28R,0.05118X0.04134*%
%ADD29R,0.26575X0.05118*%
%ADD30R,0.04134X0.05118*%
G04:AMPARAMS|DCode=31|XSize=41.34mil|YSize=51.18mil|CornerRadius=0mil|HoleSize=0mil|Usage=FLASHONLY|Rotation=225.000|XOffset=0mil|YOffset=0mil|HoleType=Round|Shape=Rectangle|*
%AMROTATEDRECTD31*
4,1,4,-0.00348,0.03271,0.03271,-0.00348,0.00348,-0.03271,-0.03271,0.00348,-0.00348,0.03271,0.0*
%
%ADD31ROTATEDRECTD31*%

G04:AMPARAMS|DCode=32|XSize=41.34mil|YSize=51.18mil|CornerRadius=0mil|HoleSize=0mil|Usage=FLASHONLY|Rotation=135.000|XOffset=0mil|YOffset=0mil|HoleType=Round|Shape=Rectangle|*
%AMROTATEDRECTD32*
4,1,4,0.03271,0.00348,-0.00348,-0.03271,-0.03271,-0.00348,0.00348,0.03271,0.03271,0.00348,0.0*
%
%ADD32ROTATEDRECTD32*%

%ADD33R,0.05118X0.26575*%
%ADD34C,0.07000*%
%ADD35C,0.01200*%
%ADD36C,0.04000*%
%ADD37C,0.01500*%
%ADD38C,0.01000*%
%ADD39C,0.02500*%
%ADD40C,0.01400*%
%ADD41P,0.08485X4X360.0*%
%ADD42C,0.06000*%
%ADD43R,0.06000X0.06000*%
%ADD44P,0.08485X4X270.0*%
%ADD45P,0.09900X4X180.0*%
%ADD46C,0.07000*%
%ADD47R,0.06000X0.06000*%
%ADD48C,0.27559*%
%ADD49C,0.06693*%
%ADD50C,0.05000*%
%ADD51C,0.05000*%
%ADD52C,0.02100*%
G04:AMPARAMS|DCode=53|XSize=51mil|YSize=55mil|CornerRadius=0mil|HoleSize=0mil|Usage=FLASHONLY|Rotation=45.000|XOffset=0mil|YOffset=0mil|HoleType=Round|Shape=Rectangle|*
%AMROTATEDRECTD53*
4,1,4,0.00141,-0.03748,-0.03748,0.00141,-0.00141,0.03748,0.03748,-0.00141,0.00141,-0.03748,0.0*
%
%ADD53ROTATEDRECTD53*%

%ADD54R,0.05100X0.05500*%
%ADD55C,0.03937*%
%ADD56C,0.01800*%
%ADD57C,0.07874*%
%ADD58C,0.00984*%
%ADD59C,0.02362*%
%ADD60C,0.00787*%
%ADD61C,0.01181*%
%ADD62C,0.00394*%
%ADD63C,0.00900*%
G04:AMPARAMS|DCode=64|XSize=74mil|YSize=67mil|CornerRadius=0mil|HoleSize=0mil|Usage=FLASHONLY|Rotation=225.000|XOffset=0mil|YOffset=0mil|HoleType=Round|Shape=Rectangle|*
%AMROTATEDRECTD64*
4,1,4,0.00248,0.04985,0.04985,0.00248,-0.00248,-0.04985,-0.04985,-0.00248,0.00248,0.04985,0.0*
%
%ADD64ROTATEDRECTD64*%

G04:AMPARAMS|DCode=65|XSize=13.84mil|YSize=65.02mil|CornerRadius=0mil|HoleSize=0mil|Usage=FLASHONLY|Rotation=45.000|XOffset=0mil|YOffset=0mil|HoleType=Round|Shape=Round|*
%AMOVALD65*
21,1,0.05118,0.01384,0.00000,0.00000,135.0*
1,1,0.01384,0.01810,-0.01810*
1,1,0.01384,-0.01810,0.01810*
%
%ADD65OVALD65*%

G04:AMPARAMS|DCode=66|XSize=13.84mil|YSize=65.02mil|CornerRadius=0mil|HoleSize=0mil|Usage=FLASHONLY|Rotation=315.000|XOffset=0mil|YOffset=0mil|HoleType=Round|Shape=Round|*
%AMOVALD66*
21,1,0.05118,0.01384,0.00000,0.00000,45.0*
1,1,0.01384,-0.01810,-0.01810*
1,1,0.01384,0.01810,0.01810*
%
%ADD66OVALD66*%

%ADD67O,0.01581X0.05518*%
%ADD68O,0.05518X0.01581*%
%ADD69R,0.05518X0.01581*%
%ADD70O,0.09061X0.02762*%
G04:AMPARAMS|DCode=71|XSize=27.62mil|YSize=66.99mil|CornerRadius=0mil|HoleSize=0mil|Usage=FLASHONLY|Rotation=225.000|XOffset=0mil|YOffset=0mil|HoleType=Round|Shape=Rectangle|*
%AMROTATEDRECTD71*
4,1,4,-0.01392,0.03345,0.03345,-0.01392,0.01392,-0.03345,-0.03345,0.01392,-0.01392,0.03345,0.0*
%
%ADD71ROTATEDRECTD71*%

G04:AMPARAMS|DCode=72|XSize=59.12mil|YSize=70.93mil|CornerRadius=0mil|HoleSize=0mil|Usage=FLASHONLY|Rotation=225.000|XOffset=0mil|YOffset=0mil|HoleType=Round|Shape=Rectangle|*
%AMROTATEDRECTD72*
4,1,4,-0.00418,0.04598,0.04598,-0.00418,0.00418,-0.04598,-0.04598,0.00418,-0.00418,0.04598,0.0*
%
%ADD72ROTATEDRECTD72*%

%ADD73R,0.05518X0.01384*%
%ADD74O,0.05518X0.01384*%
%ADD75O,0.01384X0.05518*%
%ADD76R,0.06699X0.01581*%
%ADD77O,0.06699X0.01581*%
%ADD78R,0.10243X0.10243*%
%ADD79R,0.05518X0.04534*%
%ADD80R,0.26975X0.05518*%
%ADD81R,0.04534X0.05518*%
G04:AMPARAMS|DCode=82|XSize=45.34mil|YSize=55.18mil|CornerRadius=0mil|HoleSize=0mil|Usage=FLASHONLY|Rotation=225.000|XOffset=0mil|YOffset=0mil|HoleType=Round|Shape=Rectangle|*
%AMROTATEDRECTD82*
4,1,4,-0.00348,0.03554,0.03554,-0.00348,0.00348,-0.03554,-0.03554,0.00348,-0.00348,0.03554,0.0*
%
%ADD82ROTATEDRECTD82*%

G04:AMPARAMS|DCode=83|XSize=45.34mil|YSize=55.18mil|CornerRadius=0mil|HoleSize=0mil|Usage=FLASHONLY|Rotation=135.000|XOffset=0mil|YOffset=0mil|HoleType=Round|Shape=Rectangle|*
%AMROTATEDRECTD83*
4,1,4,0.03554,0.00348,-0.00348,-0.03554,-0.03554,-0.00348,0.00348,0.03554,0.03554,0.00348,0.0*
%
%ADD83ROTATEDRECTD83*%

%ADD84R,0.05518X0.26975*%
%ADD85P,0.09051X4X360.0*%
%ADD86C,0.06400*%
%ADD87R,0.06400X0.06400*%
%ADD88P,0.09051X4X270.0*%
%ADD89P,0.10465X4X180.0*%
%ADD90C,0.07400*%
%ADD91R,0.06400X0.06400*%
%ADD92C,0.27959*%
%ADD93C,0.07093*%
%ADD94C,0.05400*%
G04:AMPARAMS|DCode=95|XSize=55mil|YSize=59mil|CornerRadius=0mil|HoleSize=0mil|Usage=FLASHONLY|Rotation=45.000|XOffset=0mil|YOffset=0mil|HoleType=Round|Shape=Rectangle|*
%AMROTATEDRECTD95*
4,1,4,0.00141,-0.04031,-0.04031,0.00141,-0.00141,0.04031,0.04031,-0.00141,0.00141,-0.04031,0.0*
%
%ADD95ROTATEDRECTD95*%

%ADD96R,0.05500X0.05900*%
%ADD97C,0.00800*%
D38*
X797180Y497000D02*
G03*
X797180Y497000I-11180J0D01*
G01*
X627180Y495000D02*
G03*
X627180Y495000I-11180J0D01*
G01*
X715180Y409000D02*
G03*
X715180Y409000I-11180J0D01*
G01*
X714180Y580000D02*
G03*
X714180Y580000I-11180J0D01*
G01*
X790500Y502000D02*
X791500Y502000D01*
X792000Y500500D02*
Y503500D01*
X791000Y502000D02*
X793500Y502000D01*
X610500Y490000D02*
X611500Y490000D01*
X610000Y488500D02*
Y491500D01*
X608500Y490000D02*
X611000Y490000D01*
X698500Y404000D02*
X699500D01*
X698000Y402500D02*
Y405500D01*
X696500Y404000D02*
X699000D01*
X708000Y574500D02*
Y575500D01*
X706500Y574000D02*
X709500D01*
X708000Y572500D02*
Y575000D01*
X727000Y461500D02*
X722759Y465741D01*
X720638Y463621D01*
Y462207D01*
X722052Y460793D01*
X723466D01*
X725586Y462914D01*
X719931Y460086D02*
X722759Y457259D01*
X721345Y458673D01*
X719931D01*
X718517D01*
X717811Y457966D01*
Y452311D02*
X716397Y450897D01*
X714983D01*
X713569Y452311D01*
Y453724D01*
X714983Y455138D01*
X716397D01*
X717811Y453724D01*
Y452311D01*
X711449Y451604D02*
Y445949D01*
X711449Y448776D01*
X708621D01*
X714276D01*
X710035Y444535D02*
X708621Y443121D01*
X709328Y443828D01*
X706500Y446656D01*
X707207Y447362D01*
X700845Y441001D02*
X702966Y443121D01*
X704380D01*
X705794Y441707D01*
Y440294D01*
X703673Y438173D01*
X701552Y436052D02*
X700139Y434639D01*
X698725D01*
X697311Y436052D01*
Y437466D01*
X698725Y438880D01*
X700139D01*
X701552Y437466D01*
Y436052D01*
X699432Y431104D02*
X695190Y435346D01*
X693070Y433225D01*
Y431811D01*
X694484Y430397D01*
X695897D01*
X698018Y432518D01*
X689536Y431104D02*
X690242Y430397D01*
X690949Y431104D01*
X689536Y429691D01*
X690242Y430397D01*
X692363Y428277D01*
X692363Y426863D01*
X688122Y422622D02*
X689536Y424036D01*
Y425449D01*
X688122Y426863D01*
X686708D01*
X685294Y425449D01*
Y424036D01*
X686001Y423329D01*
X688829Y426156D01*
X683174Y423329D02*
X686001Y420501D01*
X684587Y421915D01*
X683174D01*
X681760D01*
X681053Y421208D01*
D63*
X786468Y514624D02*
X787135Y515290D01*
X788467D01*
X789134Y514624D01*
Y511958D01*
X788467Y511291D01*
X787135D01*
X786468Y511958D01*
X785135Y514624D02*
X784469Y515290D01*
X783136D01*
X782469Y514624D01*
Y513957D01*
X783136Y513291D01*
X783802D01*
X783136D01*
X782469Y512624D01*
Y511958D01*
X783136Y511291D01*
X784469D01*
X785135Y511958D01*
X633441Y495617D02*
X632775Y494950D01*
X631442D01*
X630776Y495617D01*
Y498282D01*
X631442Y498949D01*
X632775D01*
X633441Y498282D01*
X637440Y494950D02*
X634774D01*
Y496949D01*
X636107Y496283D01*
X636774D01*
X637440Y496949D01*
Y498282D01*
X636774Y498949D01*
X635441D01*
X634774Y498282D01*
X680966Y593268D02*
X680299Y592601D01*
X678966D01*
X678300Y593268D01*
Y595934D01*
X678966Y596600D01*
X680299D01*
X680966Y595934D01*
X682299Y596600D02*
X683632D01*
X682965D01*
Y592601D01*
X682299Y593268D01*
X685631Y595934D02*
X686297Y596600D01*
X687630D01*
X688297Y595934D01*
Y593268D01*
X687630Y592601D01*
X686297D01*
X685631Y593268D01*
Y593934D01*
X686297Y594601D01*
X688297D01*
X689972Y468073D02*
X692800Y470900D01*
X694214Y469486D01*
Y468544D01*
X692329Y466659D01*
X691386D01*
X689972Y468073D01*
X695627D02*
X696570Y467130D01*
X696099Y467601D01*
X693271Y464774D01*
Y465716D01*
X730500Y497001D02*
Y501000D01*
X732499D01*
X733166Y500334D01*
Y497668D01*
X732499Y497001D01*
X730500D01*
X737164Y501000D02*
X734499D01*
X737164Y498334D01*
Y497668D01*
X736498Y497001D01*
X735165D01*
X734499Y497668D01*
X726834Y421032D02*
X727501Y421699D01*
X728834D01*
X729500Y421032D01*
Y418366D01*
X728834Y417700D01*
X727501D01*
X726834Y418366D01*
X725501Y417700D02*
X724168D01*
X724835D01*
Y421699D01*
X725501Y421032D01*
X719503Y421699D02*
X722169D01*
Y419699D01*
X720836Y420366D01*
X720170D01*
X719503Y419699D01*
Y418366D01*
X720170Y417700D01*
X721503D01*
X722169Y418366D01*
D97*
X687162Y466465D02*
X692465Y461162D01*
X676838Y456141D02*
X687162Y466465D01*
X682141Y450838D02*
X692465Y461162D01*
X676838Y456141D02*
X682141Y450838D01*
X687975Y467278D02*
X693278Y461975D01*
X706950Y494250D02*
Y501750D01*
Y494250D02*
X721550D01*
X706950Y501750D02*
X721550D01*
Y494250D02*
Y501750D01*
X705800Y494250D02*
Y501750D01*
X715015Y443385D02*
X716900Y441500D01*
X715957Y442443D01*
X715015D01*
X714073D01*
X713601Y441971D01*
X712659Y437259D02*
X713601Y438201D01*
Y439144D01*
X712659Y440086D01*
X711716D01*
X710774Y439144D01*
Y438201D01*
X711245Y437730D01*
X713130Y439615D01*
X709360Y437730D02*
X710302Y434902D01*
X707475Y435845D01*
X708418Y433017D02*
X707475Y432075D01*
X707946Y432546D01*
X705119Y435374D01*
X706061D01*
Y430661D02*
X705590Y431132D01*
X705119Y430661D01*
X705590Y430190D01*
X706061Y430661D01*
X701349D02*
X700406D01*
X699464Y429719D01*
Y428776D01*
X701349Y426891D01*
X702291D01*
X703234Y427834D01*
Y428776D01*
X701349Y430661D01*
M02*
