%FSLAX25Y25*%
%MOIN*%
G70*
G01*
G75*
%ADD10C,0.03000*%
%ADD11C,0.02000*%
%ADD12C,0.06000*%
G04:AMPARAMS|DCode=13|XSize=70mil|YSize=63mil|CornerRadius=0mil|HoleSize=0mil|Usage=FLASHONLY|Rotation=225.000|XOffset=0mil|YOffset=0mil|HoleType=Round|Shape=Rectangle|*
%AMROTATEDRECTD13*
4,1,4,0.00248,0.04702,0.04702,0.00248,-0.00248,-0.04702,-0.04702,-0.00248,0.00248,0.04702,0.0*
%
%ADD13ROTATEDRECTD13*%

G04:AMPARAMS|DCode=14|XSize=9.84mil|YSize=61.02mil|CornerRadius=0mil|HoleSize=0mil|Usage=FLASHONLY|Rotation=45.000|XOffset=0mil|YOffset=0mil|HoleType=Round|Shape=Round|*
%AMOVALD14*
21,1,0.05118,0.00984,0.00000,0.00000,135.0*
1,1,0.00984,0.01810,-0.01810*
1,1,0.00984,-0.01810,0.01810*
%
%ADD14OVALD14*%

G04:AMPARAMS|DCode=15|XSize=9.84mil|YSize=61.02mil|CornerRadius=0mil|HoleSize=0mil|Usage=FLASHONLY|Rotation=315.000|XOffset=0mil|YOffset=0mil|HoleType=Round|Shape=Round|*
%AMOVALD15*
21,1,0.05118,0.00984,0.00000,0.00000,45.0*
1,1,0.00984,-0.01810,-0.01810*
1,1,0.00984,0.01810,0.01810*
%
%ADD15OVALD15*%

%ADD16O,0.01181X0.05118*%
%ADD17O,0.05118X0.01181*%
%ADD18R,0.05118X0.01181*%
%ADD19O,0.08661X0.02362*%
G04:AMPARAMS|DCode=20|XSize=23.62mil|YSize=62.99mil|CornerRadius=0mil|HoleSize=0mil|Usage=FLASHONLY|Rotation=225.000|XOffset=0mil|YOffset=0mil|HoleType=Round|Shape=Rectangle|*
%AMROTATEDRECTD20*
4,1,4,-0.01392,0.03062,0.03062,-0.01392,0.01392,-0.03062,-0.03062,0.01392,-0.01392,0.03062,0.0*
%
%ADD20ROTATEDRECTD20*%

G04:AMPARAMS|DCode=21|XSize=55.12mil|YSize=66.93mil|CornerRadius=0mil|HoleSize=0mil|Usage=FLASHONLY|Rotation=225.000|XOffset=0mil|YOffset=0mil|HoleType=Round|Shape=Rectangle|*
%AMROTATEDRECTD21*
4,1,4,-0.00418,0.04315,0.04315,-0.00418,0.00418,-0.04315,-0.04315,0.00418,-0.00418,0.04315,0.0*
%
%ADD21ROTATEDRECTD21*%

%ADD22R,0.05118X0.00984*%
%ADD23O,0.05118X0.00984*%
%ADD24O,0.00984X0.05118*%
%ADD25R,0.06299X0.01181*%
%ADD26O,0.06299X0.01181*%
%ADD27R,0.09843X0.09843*%
%ADD28R,0.05118X0.04134*%
%ADD29R,0.26575X0.05118*%
%ADD30R,0.04134X0.05118*%
G04:AMPARAMS|DCode=31|XSize=41.34mil|YSize=51.18mil|CornerRadius=0mil|HoleSize=0mil|Usage=FLASHONLY|Rotation=225.000|XOffset=0mil|YOffset=0mil|HoleType=Round|Shape=Rectangle|*
%AMROTATEDRECTD31*
4,1,4,-0.00348,0.03271,0.03271,-0.00348,0.00348,-0.03271,-0.03271,0.00348,-0.00348,0.03271,0.0*
%
%ADD31ROTATEDRECTD31*%

G04:AMPARAMS|DCode=32|XSize=41.34mil|YSize=51.18mil|CornerRadius=0mil|HoleSize=0mil|Usage=FLASHONLY|Rotation=135.000|XOffset=0mil|YOffset=0mil|HoleType=Round|Shape=Rectangle|*
%AMROTATEDRECTD32*
4,1,4,0.03271,0.00348,-0.00348,-0.03271,-0.03271,-0.00348,0.00348,0.03271,0.03271,0.00348,0.0*
%
%ADD32ROTATEDRECTD32*%

%ADD33R,0.05118X0.26575*%
%ADD34C,0.07000*%
%ADD35C,0.01200*%
%ADD36C,0.04000*%
%ADD37C,0.01500*%
%ADD38C,0.01000*%
%ADD39C,0.02500*%
%ADD40C,0.01400*%
%ADD41P,0.08485X4X360.0*%
%ADD42C,0.06000*%
%ADD43R,0.06000X0.06000*%
%ADD44P,0.08485X4X270.0*%
%ADD45P,0.09900X4X180.0*%
%ADD46C,0.07000*%
%ADD47R,0.06000X0.06000*%
%ADD48C,0.27559*%
%ADD49C,0.06693*%
%ADD50C,0.05000*%
%ADD51C,0.05000*%
%ADD52C,0.02100*%
G04:AMPARAMS|DCode=53|XSize=51mil|YSize=55mil|CornerRadius=0mil|HoleSize=0mil|Usage=FLASHONLY|Rotation=45.000|XOffset=0mil|YOffset=0mil|HoleType=Round|Shape=Rectangle|*
%AMROTATEDRECTD53*
4,1,4,0.00141,-0.03748,-0.03748,0.00141,-0.00141,0.03748,0.03748,-0.00141,0.00141,-0.03748,0.0*
%
%ADD53ROTATEDRECTD53*%

%ADD54R,0.05100X0.05500*%
%ADD55C,0.03937*%
%ADD56C,0.01800*%
%ADD57C,0.07874*%
%ADD58C,0.00984*%
%ADD59C,0.02362*%
%ADD60C,0.00787*%
%ADD61C,0.01181*%
%ADD62C,0.00394*%
%ADD63C,0.00900*%
D38*
X610180Y518000D02*
G03*
X610180Y518000I-11180J0D01*
G01*
X804180Y466000D02*
G03*
X804180Y466000I-11180J0D01*
G01*
X832100Y481500D02*
Y481600D01*
X728000Y414000D02*
Y430000D01*
Y430098D02*
X764000Y430098D01*
X728000Y414098D02*
X764000D01*
X764000Y430098D02*
X764000Y414098D01*
X614929Y462385D02*
X633314Y444000D01*
X603615Y451071D02*
X614929Y462385D01*
X603615Y451071D02*
X622000Y432686D01*
X633314Y444000D01*
X619768Y554839D02*
X626839Y547768D01*
X609161Y530090D02*
X626839Y547768D01*
X602090Y537161D02*
X609161Y530090D01*
X602090Y537161D02*
X603858Y538929D01*
X619768Y554839D01*
X723542Y567709D02*
X777282Y513969D01*
X723542Y567709D02*
X741220Y585387D01*
X741927D01*
X794960Y532353D01*
X776929Y513615D02*
X795314Y532000D01*
X594000Y512500D02*
Y513500D01*
X592500Y512000D02*
X595500D01*
X594000Y510500D02*
Y513000D01*
X702819Y252378D02*
X705181D01*
X704000Y251197D02*
Y253559D01*
X702819Y262614D02*
X705181D01*
X798000Y471500D02*
X798000Y470500D01*
X796500Y472000D02*
X799500Y472000D01*
X798000Y471000D02*
Y473500D01*
X567900Y502500D02*
X567900Y502400D01*
X937386Y492819D02*
Y495181D01*
X946441Y494000D02*
X948803D01*
X947622Y492819D02*
Y495181D01*
X460378Y492819D02*
Y495181D01*
X459197Y494000D02*
X461559D01*
X470614Y492819D02*
Y495181D01*
X698819Y727386D02*
X701181D01*
X700000Y736441D02*
Y738803D01*
X698819Y737622D02*
X701181D01*
D58*
X699430Y559700D02*
G03*
X699430Y559700I-492J0D01*
G01*
X701567Y394071D02*
G03*
X701567Y394071I-492J0D01*
G01*
X737043Y478847D02*
G03*
X737043Y478847I-492J0D01*
G01*
X657934Y452094D02*
G03*
X657934Y452094I-492J0D01*
G01*
X690362Y610409D02*
G03*
X690362Y610409I-492J0D01*
G01*
D59*
X703181Y550652D02*
G03*
X703181Y550652I-1181J0D01*
G01*
D60*
X821616Y482721D02*
G03*
X820337Y482721I-640J0D01*
G01*
X578384Y501280D02*
G03*
X579663Y501280I640J0D01*
G01*
X638733Y455949D02*
X644300Y450381D01*
X637619Y443700D02*
X644300Y450381D01*
X632051Y449267D02*
X637619Y443700D01*
X677780Y532000D02*
X702000Y556220D01*
Y507780D02*
X726220Y532000D01*
X702000Y556220D02*
X726220Y532000D01*
X677780D02*
X702000Y507780D01*
X704126Y378126D02*
Y379898D01*
Y378126D02*
X705898D01*
X718102D02*
X719874D01*
Y379898D01*
Y392102D02*
Y393874D01*
X718102D02*
X719874D01*
X704126D02*
X705898D01*
X704126Y392102D02*
Y393874D01*
X742457Y438315D02*
Y477685D01*
X749544D02*
X749544Y438315D01*
X742457Y477685D02*
X749544D01*
X742457Y438315D02*
X749544Y438315D01*
X659947Y463508D02*
X662174Y465735D01*
X663288Y464622D01*
X653822Y457383D02*
X656049Y459611D01*
X653822Y457383D02*
X654936Y456270D01*
X694594Y610605D02*
Y610704D01*
Y610605D02*
X696465D01*
X704535D02*
X706405D01*
Y610704D01*
Y598696D02*
Y598795D01*
X704535D02*
X706405D01*
X694594D02*
X696465D01*
X694594Y598696D02*
Y598795D01*
X821616Y482721D02*
X825563Y482720D01*
X816390Y482721D02*
X820337Y482720D01*
X816390Y482721D02*
X816390Y503193D01*
X825563D01*
X825563Y482720D01*
X818260Y464126D02*
X822000D01*
X818260D02*
Y479874D01*
X825740D01*
Y464126D02*
Y479874D01*
X822000Y464126D02*
X825740D01*
X720000Y593874D02*
X723740D01*
Y578126D02*
Y593874D01*
X716260Y578126D02*
X723740D01*
X716260D02*
Y593874D01*
X720000D01*
X574437Y480807D02*
X574437Y501279D01*
X574437Y480807D02*
X583610Y480807D01*
X583610Y501279D02*
X583610Y480807D01*
X579663Y501280D02*
X583610Y501279D01*
X574437D02*
X578384Y501279D01*
X604000Y491874D02*
X607740D01*
Y476126D02*
Y491874D01*
X600260Y476126D02*
X607740D01*
X600260D02*
Y491874D01*
X604000D01*
X764260Y474126D02*
X768000D01*
X764260D02*
Y489874D01*
X771740D01*
Y474126D02*
Y489874D01*
X768000Y474126D02*
X771740D01*
X716260Y472126D02*
X720000D01*
X716260D02*
Y487874D01*
X723740D01*
Y472126D02*
Y487874D01*
X720000Y472126D02*
X723740D01*
X712260Y432126D02*
X716000D01*
X712260D02*
Y447874D01*
X719740D01*
Y432126D02*
Y447874D01*
X716000Y432126D02*
X719740D01*
X755874Y488260D02*
Y492000D01*
X740126Y488260D02*
X755874D01*
X740126D02*
Y495740D01*
X755874D01*
Y492000D02*
Y495740D01*
X671568Y585568D02*
X674213Y582923D01*
X663077Y571788D02*
X674213Y582923D01*
X657788Y577077D02*
X663077Y571788D01*
X657788Y577077D02*
X668923Y588212D01*
X671568Y585568D01*
X768126Y436000D02*
Y439740D01*
X783874D01*
Y432260D02*
Y439740D01*
X768126Y432260D02*
X783874D01*
X768126D02*
Y436000D01*
X651568Y561568D02*
X654213Y558923D01*
X643077Y547788D02*
X654213Y558923D01*
X637787Y553077D02*
X643077Y547788D01*
X637787Y553077D02*
X648923Y564213D01*
X651568Y561568D01*
X668923Y407788D02*
X671568Y410432D01*
X657788Y418923D02*
X668923Y407788D01*
X657788Y418923D02*
X663077Y424213D01*
X674213Y413077D01*
X671568Y410432D02*
X674213Y413077D01*
X728126Y392000D02*
Y395740D01*
X743874D01*
Y388260D02*
Y395740D01*
X728126Y388260D02*
X743874D01*
X728126D02*
Y392000D01*
X729874Y402260D02*
Y406000D01*
X714126Y402260D02*
X729874D01*
X714126D02*
Y409740D01*
X729874D01*
Y406000D02*
Y409740D01*
X685874Y608260D02*
Y612000D01*
X670126Y608260D02*
X685874D01*
X670126D02*
Y615740D01*
X685874D01*
Y612000D02*
Y615740D01*
X852000Y491874D02*
X855740D01*
Y476126D02*
Y491874D01*
X848260Y476126D02*
X855740D01*
X848260D02*
Y491874D01*
X852000D01*
X570260Y504126D02*
X574000D01*
X570260D02*
Y519874D01*
X577740D01*
Y504126D02*
Y519874D01*
X574000Y504126D02*
X577740D01*
X665568Y493568D02*
X668213Y490923D01*
X657077Y479787D02*
X668213Y490923D01*
X651788Y485077D02*
X657077Y479787D01*
X651788Y485077D02*
X662923Y496212D01*
X665568Y493568D01*
X647568Y475568D02*
X650212Y472923D01*
X639077Y461788D02*
X650212Y472923D01*
X633787Y467077D02*
X639077Y461788D01*
X633787Y467077D02*
X644923Y478212D01*
X647568Y475568D01*
X818126Y512000D02*
Y515740D01*
X833874D01*
Y508260D02*
Y515740D01*
X818126Y508260D02*
X833874D01*
X818126D02*
Y512000D01*
X538260Y482126D02*
X542000D01*
X538260D02*
Y497874D01*
X545740D01*
Y482126D02*
Y497874D01*
X542000Y482126D02*
X545740D01*
X667568Y441568D02*
X670213Y438923D01*
X659077Y427787D02*
X670213Y438923D01*
X653788Y433077D02*
X659077Y427787D01*
X653788Y433077D02*
X664923Y444212D01*
X667568Y441568D01*
X616432Y529568D02*
X619077Y532212D01*
X630212Y521077D01*
X624923Y515788D02*
X630212Y521077D01*
X613788Y526923D02*
X624923Y515788D01*
X613788Y526923D02*
X616432Y529568D01*
X689874Y590260D02*
Y594000D01*
X674126Y590260D02*
X689874D01*
X674126D02*
Y597740D01*
X689874D01*
Y594000D02*
Y597740D01*
X651568Y583568D02*
X654213Y580923D01*
X643077Y569788D02*
X654213Y580923D01*
X637787Y575077D02*
X643077Y569788D01*
X637787Y575077D02*
X648923Y586212D01*
X651568Y583568D01*
X736126Y406000D02*
Y409740D01*
X751874D01*
Y402260D02*
Y409740D01*
X736126Y402260D02*
X751874D01*
X736126D02*
Y406000D01*
X725874Y494260D02*
Y498000D01*
X710126Y494260D02*
X725874D01*
X710126D02*
Y501740D01*
X725874D01*
Y498000D02*
Y501740D01*
X693874Y376260D02*
Y380000D01*
X678126Y376260D02*
X693874D01*
X678126D02*
Y383740D01*
X693874D01*
Y380000D02*
Y383740D01*
D61*
X681930Y559696D02*
X687985Y565751D01*
X672048Y569718D02*
X678103Y575773D01*
X684018Y581550D02*
X694040Y571527D01*
X665854Y563941D02*
X675876Y553919D01*
D62*
X706300Y363700D02*
Y372300D01*
X697700Y363700D02*
X706300D01*
X697700Y372300D02*
X706300D01*
X697700Y363700D02*
Y372300D01*
X802300Y518300D02*
X802300Y509700D01*
X793700D02*
X802300D01*
X793700Y518300D02*
X802300D01*
X793700Y509700D02*
X793700Y518300D01*
X805700Y509700D02*
X814300D01*
X805700D02*
Y518300D01*
X814300Y509700D02*
X814300Y518300D01*
X805700D02*
X814300D01*
X814300Y471700D02*
Y480300D01*
X805700Y471700D02*
X814300Y471700D01*
X805700Y480300D02*
X814300Y480300D01*
X805700Y471700D02*
X805700Y480300D01*
X805700Y459700D02*
X805700Y468300D01*
X814300D01*
X805700Y459700D02*
X814300Y459700D01*
X814300Y468300D01*
X722300Y363700D02*
Y372300D01*
X713700Y363700D02*
X722300D01*
X713700Y372300D02*
X722300D01*
X713700Y363700D02*
Y372300D01*
X667700Y391700D02*
X676300D01*
X667700D02*
Y400300D01*
X676300Y391700D02*
Y400300D01*
X667700D02*
X676300D01*
X677700Y391700D02*
X686300D01*
X677700D02*
Y400300D01*
X686300Y391700D02*
Y400300D01*
X677700D02*
X686300D01*
X696300Y391700D02*
Y400300D01*
X687700Y391700D02*
X696300D01*
X687700Y400300D02*
X696300D01*
X687700Y391700D02*
Y400300D01*
X722300Y609700D02*
Y618300D01*
X713700Y609700D02*
X722300D01*
X713700Y618300D02*
X722300D01*
X713700Y609700D02*
Y618300D01*
X724300Y597700D02*
Y606300D01*
X715700Y597700D02*
X724300D01*
X715700Y606300D02*
X724300D01*
X715700Y597700D02*
Y606300D01*
X765700Y441700D02*
X774300D01*
X765700D02*
Y450300D01*
X774300Y441700D02*
Y450300D01*
X765700D02*
X774300D01*
X777700Y441700D02*
X786300D01*
X777700D02*
Y450300D01*
X786300Y441700D02*
Y450300D01*
X777700D02*
X786300D01*
X633919Y516000D02*
X640000Y522081D01*
X646081Y516000D01*
X633919D02*
X640000Y509919D01*
X646081Y516000D01*
X648000Y530081D02*
X654081Y524000D01*
X648000Y517919D02*
X654081Y524000D01*
X641919D02*
X648000Y530081D01*
X641919Y524000D02*
X648000Y517919D01*
X628000Y531919D02*
X634081Y538000D01*
X621919D02*
X628000Y531919D01*
Y544081D02*
X634081Y538000D01*
X621919D02*
X628000Y544081D01*
X632000Y514081D02*
X638081Y508000D01*
X632000Y501919D02*
X638081Y508000D01*
X625919D02*
X632000Y514081D01*
X625919Y508000D02*
X632000Y501919D01*
D63*
X726700Y585300D02*
Y589299D01*
X728699D01*
X729366Y588632D01*
Y587299D01*
X728699Y586633D01*
X726700D01*
X728033D02*
X729366Y585300D01*
X730699D02*
X732032D01*
X731365D01*
Y589299D01*
X730699Y588632D01*
X736030Y585300D02*
Y589299D01*
X734031Y587299D01*
X736697D01*
X680800Y385500D02*
Y389499D01*
X682799D01*
X683466Y388832D01*
Y387499D01*
X682799Y386833D01*
X680800D01*
X682133D02*
X683466Y385500D01*
X684799D02*
X686132D01*
X685465D01*
Y389499D01*
X684799Y388832D01*
X688131D02*
X688797Y389499D01*
X690130D01*
X690797Y388832D01*
Y388166D01*
X690130Y387499D01*
X689464D01*
X690130D01*
X690797Y386833D01*
Y386166D01*
X690130Y385500D01*
X688797D01*
X688131Y386166D01*
X707151Y280809D02*
Y276810D01*
X705818Y278143D01*
X704485Y276810D01*
Y280809D01*
X701153D02*
Y276810D01*
X703152Y278809D01*
X700487D01*
X696900Y711100D02*
Y715099D01*
X698233Y713766D01*
X699566Y715099D01*
Y711100D01*
X700899D02*
X702232D01*
X701565D01*
Y715099D01*
X700899Y714432D01*
X487780Y491480D02*
X483781D01*
X485114Y492813D01*
X483781Y494145D01*
X487780D01*
Y498144D02*
Y495478D01*
X485114Y498144D01*
X484448D01*
X483781Y497478D01*
Y496145D01*
X484448Y495478D01*
X919900Y497200D02*
X923899D01*
X922566Y495867D01*
X923899Y494534D01*
X919900D01*
X923232Y493201D02*
X923899Y492535D01*
Y491202D01*
X923232Y490535D01*
X922566D01*
X921899Y491202D01*
Y491868D01*
Y491202D01*
X921233Y490535D01*
X920566D01*
X919900Y491202D01*
Y492535D01*
X920566Y493201D01*
X697000Y361599D02*
X699666D01*
X698333D01*
Y357600D01*
X700999D02*
X702332D01*
X701665D01*
Y361599D01*
X700999Y360932D01*
X704331Y361599D02*
X706997D01*
Y360932D01*
X704331Y358266D01*
Y357600D01*
X713000Y361099D02*
X715666D01*
X714333D01*
Y357100D01*
X716999D02*
X718332D01*
X717665D01*
Y361099D01*
X716999Y360432D01*
X722997Y361099D02*
X721664Y360432D01*
X720331Y359099D01*
Y357766D01*
X720997Y357100D01*
X722330D01*
X722997Y357766D01*
Y358433D01*
X722330Y359099D01*
X720331D01*
X638872Y528027D02*
X640758Y529913D01*
X639815Y528970D01*
X642642Y526143D01*
X644527Y528027D02*
X645470Y528970D01*
X644999Y528499D01*
X642171Y531326D01*
Y530384D01*
X645941Y535096D02*
X644056Y533211D01*
X645470Y531798D01*
X645941Y533211D01*
X646413Y533682D01*
X647355D01*
X648298Y532740D01*
Y531798D01*
X647355Y530855D01*
X646413D01*
X726300Y603199D02*
X728966D01*
X727633D01*
Y599200D01*
X730299D02*
X731632D01*
X730965D01*
Y603199D01*
X730299Y602532D01*
X735630Y599200D02*
Y603199D01*
X733631Y601199D01*
X736297D01*
X630573Y519828D02*
X632457Y521712D01*
X631515Y520770D01*
X634342Y517942D01*
X636228Y519828D02*
X637170Y520770D01*
X636699Y520299D01*
X633871Y523126D01*
Y522184D01*
X636228Y524540D02*
Y525483D01*
X637170Y526425D01*
X638112D01*
X638584Y525954D01*
Y525011D01*
X638112Y524540D01*
X638584Y525011D01*
X639526D01*
X639997Y524540D01*
Y523597D01*
X639055Y522655D01*
X638112D01*
X723500Y615599D02*
X726166D01*
X724833D01*
Y611600D01*
X727499D02*
X728832D01*
X728165D01*
Y615599D01*
X727499Y614932D01*
X733497Y611600D02*
X730831D01*
X733497Y614266D01*
Y614932D01*
X732830Y615599D01*
X731497D01*
X730831Y614932D01*
X621273Y510827D02*
X623158Y512712D01*
X622215Y511770D01*
X625042Y508943D01*
X626928Y510827D02*
X627870Y511770D01*
X627399Y511299D01*
X624571Y514126D01*
Y513184D01*
X629284D02*
X630226Y514126D01*
X629755Y513655D01*
X626928Y516482D01*
Y515540D01*
X688000Y405899D02*
X690666D01*
X689333D01*
Y401900D01*
X691999D02*
X693332D01*
X692665D01*
Y405899D01*
X691999Y405232D01*
X695331D02*
X695997Y405899D01*
X697330D01*
X697997Y405232D01*
Y402566D01*
X697330Y401900D01*
X695997D01*
X695331Y402566D01*
Y405232D01*
X630072Y531128D02*
X631957Y533012D01*
X631015Y532070D01*
X633843Y529243D01*
X635256Y531599D02*
X636199D01*
X637141Y532541D01*
Y533484D01*
X635256Y535369D01*
X634314D01*
X633371Y534426D01*
Y533484D01*
X633843Y533012D01*
X634785D01*
X636199Y534426D01*
X678800Y405799D02*
X681466D01*
X680133D01*
Y401800D01*
X682799Y405132D02*
X683465Y405799D01*
X684798D01*
X685464Y405132D01*
Y404466D01*
X684798Y403799D01*
X685464Y403133D01*
Y402466D01*
X684798Y401800D01*
X683465D01*
X682799Y402466D01*
Y403133D01*
X683465Y403799D01*
X682799Y404466D01*
Y405132D01*
X683465Y403799D02*
X684798D01*
X767100Y456499D02*
X769766D01*
X768433D01*
Y452500D01*
X771099Y456499D02*
X773765D01*
Y455832D01*
X771099Y453166D01*
Y452500D01*
X793000Y524499D02*
X795666D01*
X794333D01*
Y520500D01*
X799664Y524499D02*
X798332Y523832D01*
X796999Y522499D01*
Y521166D01*
X797665Y520500D01*
X798998D01*
X799664Y521166D01*
Y521833D01*
X798998Y522499D01*
X796999D01*
X806500Y523999D02*
X809166D01*
X807833D01*
Y520000D01*
X813165Y523999D02*
X810499D01*
Y521999D01*
X811832Y522666D01*
X812498D01*
X813165Y521999D01*
Y520666D01*
X812498Y520000D01*
X811165D01*
X810499Y520666D01*
X778400Y456799D02*
X781066D01*
X779733D01*
Y452800D01*
X784398D02*
Y456799D01*
X782399Y454799D01*
X785065D01*
X797500Y482899D02*
X800166D01*
X798833D01*
Y478900D01*
X801499Y482232D02*
X802165Y482899D01*
X803498D01*
X804165Y482232D01*
Y481566D01*
X803498Y480899D01*
X802832D01*
X803498D01*
X804165Y480233D01*
Y479566D01*
X803498Y478900D01*
X802165D01*
X801499Y479566D01*
X806200Y458099D02*
X808866D01*
X807533D01*
Y454100D01*
X812864D02*
X810199D01*
X812864Y456766D01*
Y457432D01*
X812198Y458099D01*
X810865D01*
X810199Y457432D01*
X669700Y405499D02*
X672366D01*
X671033D01*
Y401500D01*
X673699D02*
X675032D01*
X674365D01*
Y405499D01*
X673699Y404832D01*
X599466Y504132D02*
X598799Y504799D01*
X597466D01*
X596800Y504132D01*
Y501466D01*
X597466Y500800D01*
X598799D01*
X599466Y501466D01*
X603465Y504799D02*
X602132Y504132D01*
X600799Y502799D01*
Y501466D01*
X601465Y500800D01*
X602798D01*
X603465Y501466D01*
Y502133D01*
X602798Y502799D01*
X600799D01*
X723812Y563942D02*
X722870Y564885D01*
X723341Y564414D01*
X720985Y562057D01*
X720043D01*
X719571Y562529D01*
Y563471D01*
X724755Y563000D02*
X726640Y561115D01*
X725698Y562057D01*
X722870Y559230D01*
X724755Y557345D02*
X726640Y559230D01*
X728525D01*
X728525Y557345D01*
X726640Y555460D01*
X728054Y556874D01*
X726169Y558759D01*
X731824Y554989D02*
Y555931D01*
X730881Y556874D01*
X729939D01*
X728054Y554989D01*
Y554046D01*
X728996Y553104D01*
X729939D01*
X730881Y554046D01*
X729939Y554989D01*
X730410Y551690D02*
X731353Y550747D01*
X730881Y551219D01*
X733709Y554046D01*
X732766D01*
X597657Y535612D02*
X596715Y534670D01*
X597186Y535141D01*
X599543Y532785D01*
Y531843D01*
X599071Y531371D01*
X598129D01*
X601428Y533728D02*
X602370Y534670D01*
X601899Y534199D01*
X599071Y537026D01*
Y536084D01*
X831566Y471132D02*
X830899Y471799D01*
X829566D01*
X828900Y471132D01*
Y468466D01*
X829566Y467800D01*
X830899D01*
X831566Y468466D01*
X832899Y467800D02*
X834232D01*
X833565D01*
Y471799D01*
X832899Y471132D01*
X603266Y470532D02*
X602599Y471199D01*
X601266D01*
X600600Y470532D01*
Y467866D01*
X601266Y467200D01*
X602599D01*
X603266Y467866D01*
X607265Y467200D02*
X604599D01*
X607265Y469866D01*
Y470532D01*
X606598Y471199D01*
X605265D01*
X604599Y470532D01*
X790566Y482632D02*
X789899Y483299D01*
X788566D01*
X787900Y482632D01*
Y479966D01*
X788566Y479300D01*
X789899D01*
X790566Y479966D01*
X793898Y479300D02*
Y483299D01*
X791899Y481299D01*
X794564D01*
X776066Y484532D02*
X775399Y485199D01*
X774066D01*
X773400Y484532D01*
Y481866D01*
X774066Y481200D01*
X775399D01*
X776066Y481866D01*
X777399Y485199D02*
X780064D01*
Y484532D01*
X777399Y481866D01*
Y481200D01*
X709766Y481432D02*
X709099Y482099D01*
X707766D01*
X707100Y481432D01*
Y478766D01*
X707766Y478100D01*
X709099D01*
X709766Y478766D01*
X711099Y481432D02*
X711765Y482099D01*
X713098D01*
X713764Y481432D01*
Y480766D01*
X713098Y480099D01*
X713764Y479433D01*
Y478766D01*
X713098Y478100D01*
X711765D01*
X711099Y478766D01*
Y479433D01*
X711765Y480099D01*
X711099Y480766D01*
Y481432D01*
X711765Y480099D02*
X713098D01*
X715066Y453232D02*
X714399Y453899D01*
X713066D01*
X712400Y453232D01*
Y450566D01*
X713066Y449900D01*
X714399D01*
X715066Y450566D01*
X716399D02*
X717065Y449900D01*
X718398D01*
X719065Y450566D01*
Y453232D01*
X718398Y453899D01*
X717065D01*
X716399Y453232D01*
Y452566D01*
X717065Y451899D01*
X719065D01*
X745366Y502632D02*
X744699Y503299D01*
X743366D01*
X742700Y502632D01*
Y499966D01*
X743366Y499300D01*
X744699D01*
X745366Y499966D01*
X746699Y499300D02*
X748032D01*
X747365D01*
Y503299D01*
X746699Y502632D01*
X750031D02*
X750697Y503299D01*
X752030D01*
X752697Y502632D01*
Y499966D01*
X752030Y499300D01*
X750697D01*
X750031Y499966D01*
Y502632D01*
X654129Y570341D02*
X653186D01*
X652244Y569399D01*
Y568456D01*
X654129Y566571D01*
X655071D01*
X656014Y567514D01*
Y568456D01*
X657428Y568927D02*
X658370Y569870D01*
X657899Y569399D01*
X655071Y572226D01*
Y571284D01*
X659784D02*
X660726Y572226D01*
X660255Y571755D01*
X657428Y574582D01*
Y573640D01*
X758866Y435732D02*
X758199Y436399D01*
X756866D01*
X756200Y435732D01*
Y433066D01*
X756866Y432400D01*
X758199D01*
X758866Y433066D01*
X760199Y432400D02*
X761532D01*
X760865D01*
Y436399D01*
X760199Y435732D01*
X766197Y432400D02*
X763531D01*
X766197Y435066D01*
Y435732D01*
X765530Y436399D01*
X764197D01*
X763531Y435732D01*
X631229Y546741D02*
X630286D01*
X629344Y545799D01*
Y544856D01*
X631229Y542971D01*
X632171D01*
X633114Y543914D01*
Y544856D01*
X634527Y545328D02*
X635470Y546270D01*
X634999Y545799D01*
X632171Y548626D01*
Y547684D01*
X634527Y550040D02*
Y550983D01*
X635470Y551925D01*
X636412D01*
X636884Y551454D01*
Y550511D01*
X636412Y550040D01*
X636884Y550511D01*
X637826D01*
X638298Y550040D01*
Y549097D01*
X637355Y548155D01*
X636412D01*
X734266Y400632D02*
X733599Y401299D01*
X732266D01*
X731600Y400632D01*
Y397966D01*
X732266Y397300D01*
X733599D01*
X734266Y397966D01*
X735599Y397300D02*
X736932D01*
X736265D01*
Y401299D01*
X735599Y400632D01*
X741597Y401299D02*
X740264Y400632D01*
X738931Y399299D01*
Y397966D01*
X739597Y397300D01*
X740930D01*
X741597Y397966D01*
Y398633D01*
X740930Y399299D01*
X738931D01*
X717666Y414932D02*
X716999Y415599D01*
X715666D01*
X715000Y414932D01*
Y412266D01*
X715666Y411600D01*
X716999D01*
X717666Y412266D01*
X718999Y411600D02*
X720332D01*
X719665D01*
Y415599D01*
X718999Y414932D01*
X722331Y415599D02*
X724997D01*
Y414932D01*
X722331Y412266D01*
Y411600D01*
X676466Y620932D02*
X675799Y621599D01*
X674466D01*
X673800Y620932D01*
Y618266D01*
X674466Y617600D01*
X675799D01*
X676466Y618266D01*
X677799Y617600D02*
X679132D01*
X678465D01*
Y621599D01*
X677799Y620932D01*
X681131D02*
X681797Y621599D01*
X683130D01*
X683797Y620932D01*
Y620266D01*
X683130Y619599D01*
X683797Y618933D01*
Y618266D01*
X683130Y617600D01*
X681797D01*
X681131Y618266D01*
Y618933D01*
X681797Y619599D01*
X681131Y620266D01*
Y620932D01*
X681797Y619599D02*
X683130D01*
X603627Y463728D02*
X600800Y460900D01*
X602214Y462314D01*
X604099Y460429D01*
X605513Y461842D01*
X602685Y459015D01*
X604099Y458544D02*
Y457601D01*
X605041Y456659D01*
X605984D01*
X607869Y458544D01*
Y459486D01*
X606926Y460429D01*
X605984D01*
X605513Y459958D01*
Y459015D01*
X606926Y457601D01*
X728400Y436899D02*
Y432900D01*
Y434899D01*
X731066D01*
Y436899D01*
Y432900D01*
X732399D02*
X733732D01*
X733065D01*
Y436899D01*
X732399Y436232D01*
X735731D02*
X736397Y436899D01*
X737730D01*
X738397Y436232D01*
Y433566D01*
X737730Y432900D01*
X736397D01*
X735731Y433566D01*
Y436232D01*
X841300Y480700D02*
Y484699D01*
X843299D01*
X843966Y484032D01*
Y482699D01*
X843299Y482033D01*
X841300D01*
X842633D02*
X843966Y480700D01*
X845299D02*
X846632D01*
X845965D01*
Y484699D01*
X845299Y484032D01*
X561500Y512700D02*
Y516699D01*
X563499D01*
X564166Y516032D01*
Y514699D01*
X563499Y514033D01*
X561500D01*
X562833D02*
X564166Y512700D01*
X568164D02*
X565499D01*
X568164Y515366D01*
Y516032D01*
X567498Y516699D01*
X566165D01*
X565499Y516032D01*
X665100Y479000D02*
X662273Y481827D01*
X663686Y483241D01*
X664629D01*
X665571Y482299D01*
Y481356D01*
X664157Y479943D01*
X665100Y480885D02*
X666985D01*
X665571Y484184D02*
Y485126D01*
X666514Y486069D01*
X667456D01*
X667928Y485598D01*
Y484655D01*
X667456Y484184D01*
X667928Y484655D01*
X668870D01*
X669341Y484184D01*
Y483241D01*
X668399Y482299D01*
X667456D01*
X647100Y461000D02*
X644273Y463828D01*
X645686Y465241D01*
X646629D01*
X647571Y464299D01*
Y463356D01*
X646158Y461942D01*
X647100Y462885D02*
X648985D01*
X651341Y465241D02*
X648514Y468069D01*
X648514Y465241D01*
X650399Y467126D01*
X836700Y509400D02*
Y513399D01*
X838699D01*
X839366Y512732D01*
Y511399D01*
X838699Y510733D01*
X836700D01*
X838033D02*
X839366Y509400D01*
X843365Y513399D02*
X840699D01*
Y511399D01*
X842032Y512066D01*
X842698D01*
X843365Y511399D01*
Y510066D01*
X842698Y509400D01*
X841365D01*
X840699Y510066D01*
X529200Y488400D02*
Y492399D01*
X531199D01*
X531866Y491732D01*
Y490399D01*
X531199Y489733D01*
X529200D01*
X530533D02*
X531866Y488400D01*
X535864Y492399D02*
X534532Y491732D01*
X533199Y490399D01*
Y489066D01*
X533865Y488400D01*
X535198D01*
X535864Y489066D01*
Y489733D01*
X535198Y490399D01*
X533199D01*
X658400Y445900D02*
X661228Y443073D01*
X659814Y441659D01*
X658871D01*
X657929Y442601D01*
Y443544D01*
X659342Y444957D01*
X658400Y444015D02*
X656515D01*
X658400Y440245D02*
X656515Y438360D01*
X656044Y438831D01*
Y442601D01*
X655573Y443073D01*
X614700Y513800D02*
X611872Y516628D01*
X613286Y518041D01*
X614229D01*
X615171Y517099D01*
Y516156D01*
X613758Y514743D01*
X614700Y515685D02*
X616585D01*
X615171Y518984D02*
Y519926D01*
X616114Y520869D01*
X617056D01*
X617527Y520398D01*
Y519455D01*
X618470D01*
X618941Y518984D01*
Y518041D01*
X617999Y517099D01*
X617056D01*
X616585Y517570D01*
Y518512D01*
X615642D01*
X615171Y518984D01*
X616585Y518512D02*
X617527Y519455D01*
X675100Y600200D02*
Y604199D01*
X677099D01*
X677766Y603532D01*
Y602199D01*
X677099Y601533D01*
X675100D01*
X676433D02*
X677766Y600200D01*
X679099Y600866D02*
X679765Y600200D01*
X681098D01*
X681765Y600866D01*
Y603532D01*
X681098Y604199D01*
X679765D01*
X679099Y603532D01*
Y602866D01*
X679765Y602199D01*
X681765D01*
X655100Y584000D02*
X652273Y586828D01*
X653686Y588241D01*
X654629D01*
X655571Y587299D01*
Y586356D01*
X654157Y584942D01*
X655100Y585885D02*
X656985D01*
X657928Y586828D02*
X658870Y587770D01*
X658399Y587299D01*
X655571Y590126D01*
Y589184D01*
X657928Y591540D02*
Y592483D01*
X658870Y593425D01*
X659812D01*
X661697Y591540D01*
Y590597D01*
X660755Y589655D01*
X659812D01*
X657928Y591540D01*
X754300Y406100D02*
Y410099D01*
X756299D01*
X756966Y409432D01*
Y408099D01*
X756299Y407433D01*
X754300D01*
X755633D02*
X756966Y406100D01*
X758299D02*
X759632D01*
X758965D01*
Y410099D01*
X758299Y409432D01*
X761631Y406100D02*
X762964D01*
X762297D01*
Y410099D01*
X761631Y409432D01*
X721400Y504300D02*
Y508299D01*
X723399D01*
X724066Y507632D01*
Y506299D01*
X723399Y505633D01*
X721400D01*
X722733D02*
X724066Y504300D01*
X725399D02*
X726732D01*
X726065D01*
Y508299D01*
X725399Y507632D01*
X731397Y504300D02*
X728731D01*
X731397Y506966D01*
Y507632D01*
X730730Y508299D01*
X729397D01*
X728731Y507632D01*
X839100Y496499D02*
Y493166D01*
X839767Y492500D01*
X841099D01*
X841766Y493166D01*
Y496499D01*
X843099Y492500D02*
X844432D01*
X843765D01*
Y496499D01*
X843099Y495832D01*
X569900Y478699D02*
Y475366D01*
X570566Y474700D01*
X571899D01*
X572566Y475366D01*
Y478699D01*
X576565Y474700D02*
X573899D01*
X576565Y477366D01*
Y478032D01*
X575898Y478699D01*
X574565D01*
X573899Y478032D01*
X697800Y621799D02*
Y618466D01*
X698466Y617800D01*
X699799D01*
X700466Y618466D01*
Y621799D01*
X701799D02*
X704464D01*
Y621132D01*
X701799Y618466D01*
Y617800D01*
X685728Y483528D02*
X683371Y481171D01*
Y480229D01*
X684314Y479286D01*
X685256D01*
X687612Y481642D01*
X688084Y480229D02*
X689026D01*
X689969Y479286D01*
Y478344D01*
X689498Y477873D01*
X688555D01*
Y476930D01*
X688084Y476459D01*
X687141D01*
X686199Y477401D01*
Y478344D01*
X686670Y478815D01*
X687612D01*
Y479757D01*
X688084Y480229D01*
X687612Y478815D02*
X688555Y477873D01*
X662827Y562827D02*
X661885Y558115D01*
X664712Y560943D02*
X660000Y560000D01*
X665655D02*
X667540Y558115D01*
X666598Y559058D01*
X663770Y556230D01*
X665655Y554345D02*
X667540Y556230D01*
X669425D01*
X669425Y554345D01*
X667540Y552460D01*
X668954Y553874D01*
X667069Y555759D01*
X671310Y554345D02*
X668482Y551517D01*
X670368Y549632D01*
X671310Y548690D02*
X672253Y547747D01*
X671781Y548219D01*
X674609Y551046D01*
X673666D01*
X665473Y466428D02*
X667829Y464071D01*
X668771D01*
X669714Y465014D01*
Y465956D01*
X667357Y468313D01*
X668771Y468784D02*
Y469726D01*
X669714Y470669D01*
X670656D01*
X671128Y470197D01*
Y469255D01*
X670656Y468784D01*
X671128Y469255D01*
X672070D01*
X672541Y468784D01*
Y467841D01*
X671599Y466899D01*
X670656D01*
X727800Y487699D02*
Y484366D01*
X728466Y483700D01*
X729799D01*
X730466Y484366D01*
Y487699D01*
X733798Y483700D02*
Y487699D01*
X731799Y485699D01*
X734465D01*
X659841Y413871D02*
Y414814D01*
X658899Y415756D01*
X657956D01*
X656071Y413871D01*
Y412929D01*
X657014Y411986D01*
X657956D01*
X658427Y410572D02*
X659370Y409630D01*
X658899Y410101D01*
X661726Y412929D01*
X660784D01*
X662197Y406803D02*
X665025Y409630D01*
X662197D01*
X664082Y407745D01*
X722800Y379999D02*
Y376666D01*
X723466Y376000D01*
X724799D01*
X725466Y376666D01*
Y379999D01*
X729464D02*
X728132Y379332D01*
X726799Y377999D01*
Y376666D01*
X727465Y376000D01*
X728798D01*
X729464Y376666D01*
Y377333D01*
X728798Y377999D01*
X726799D01*
X697600Y566199D02*
Y562866D01*
X698266Y562200D01*
X699599D01*
X700266Y562866D01*
Y566199D01*
X704264D02*
X701599D01*
Y564199D01*
X702932Y564866D01*
X703598D01*
X704264Y564199D01*
Y562866D01*
X703598Y562200D01*
X702265D01*
X701599Y562866D01*
X644028Y447428D02*
X641200Y444600D01*
X642614Y443186D01*
X643556D01*
X645441Y445071D01*
Y446014D01*
X644028Y447428D01*
X646384Y444129D02*
X647326D01*
X648269Y443186D01*
Y442244D01*
X647797Y441773D01*
X646855D01*
X646384Y442244D01*
X646855Y441773D01*
Y440830D01*
X646384Y440359D01*
X645441D01*
X644499Y441301D01*
Y442244D01*
M02*
