%FSLAX25Y25*%
%MOIN*%
G70*
G01*
G75*
G04 Layer_Physical_Order=1*
G04 Layer_Color=255*
%ADD10C,0.03000*%
%ADD11C,0.02000*%
%ADD12C,0.06000*%
G04:AMPARAMS|DCode=13|XSize=70mil|YSize=63mil|CornerRadius=0mil|HoleSize=0mil|Usage=FLASHONLY|Rotation=225.000|XOffset=0mil|YOffset=0mil|HoleType=Round|Shape=Rectangle|*
%AMROTATEDRECTD13*
4,1,4,0.00248,0.04702,0.04702,0.00248,-0.00248,-0.04702,-0.04702,-0.00248,0.00248,0.04702,0.0*
%
%ADD13ROTATEDRECTD13*%

G04:AMPARAMS|DCode=14|XSize=9.84mil|YSize=61.02mil|CornerRadius=0mil|HoleSize=0mil|Usage=FLASHONLY|Rotation=45.000|XOffset=0mil|YOffset=0mil|HoleType=Round|Shape=Round|*
%AMOVALD14*
21,1,0.05118,0.00984,0.00000,0.00000,135.0*
1,1,0.00984,0.01810,-0.01810*
1,1,0.00984,-0.01810,0.01810*
%
%ADD14OVALD14*%

G04:AMPARAMS|DCode=15|XSize=9.84mil|YSize=61.02mil|CornerRadius=0mil|HoleSize=0mil|Usage=FLASHONLY|Rotation=315.000|XOffset=0mil|YOffset=0mil|HoleType=Round|Shape=Round|*
%AMOVALD15*
21,1,0.05118,0.00984,0.00000,0.00000,45.0*
1,1,0.00984,-0.01810,-0.01810*
1,1,0.00984,0.01810,0.01810*
%
%ADD15OVALD15*%

%ADD16O,0.01181X0.05118*%
%ADD17O,0.05118X0.01181*%
%ADD18R,0.05118X0.01181*%
%ADD19O,0.08661X0.02362*%
G04:AMPARAMS|DCode=20|XSize=23.62mil|YSize=62.99mil|CornerRadius=0mil|HoleSize=0mil|Usage=FLASHONLY|Rotation=225.000|XOffset=0mil|YOffset=0mil|HoleType=Round|Shape=Rectangle|*
%AMROTATEDRECTD20*
4,1,4,-0.01392,0.03062,0.03062,-0.01392,0.01392,-0.03062,-0.03062,0.01392,-0.01392,0.03062,0.0*
%
%ADD20ROTATEDRECTD20*%

G04:AMPARAMS|DCode=21|XSize=55.12mil|YSize=66.93mil|CornerRadius=0mil|HoleSize=0mil|Usage=FLASHONLY|Rotation=225.000|XOffset=0mil|YOffset=0mil|HoleType=Round|Shape=Rectangle|*
%AMROTATEDRECTD21*
4,1,4,-0.00418,0.04315,0.04315,-0.00418,0.00418,-0.04315,-0.04315,0.00418,-0.00418,0.04315,0.0*
%
%ADD21ROTATEDRECTD21*%

%ADD22R,0.05118X0.00984*%
%ADD23O,0.05118X0.00984*%
%ADD24O,0.00984X0.05118*%
%ADD25R,0.06299X0.01181*%
%ADD26O,0.06299X0.01181*%
%ADD27R,0.09843X0.09843*%
%ADD28R,0.05118X0.04134*%
%ADD29R,0.26575X0.05118*%
%ADD30R,0.04134X0.05118*%
G04:AMPARAMS|DCode=31|XSize=41.34mil|YSize=51.18mil|CornerRadius=0mil|HoleSize=0mil|Usage=FLASHONLY|Rotation=225.000|XOffset=0mil|YOffset=0mil|HoleType=Round|Shape=Rectangle|*
%AMROTATEDRECTD31*
4,1,4,-0.00348,0.03271,0.03271,-0.00348,0.00348,-0.03271,-0.03271,0.00348,-0.00348,0.03271,0.0*
%
%ADD31ROTATEDRECTD31*%

G04:AMPARAMS|DCode=32|XSize=41.34mil|YSize=51.18mil|CornerRadius=0mil|HoleSize=0mil|Usage=FLASHONLY|Rotation=135.000|XOffset=0mil|YOffset=0mil|HoleType=Round|Shape=Rectangle|*
%AMROTATEDRECTD32*
4,1,4,0.03271,0.00348,-0.00348,-0.03271,-0.03271,-0.00348,0.00348,0.03271,0.03271,0.00348,0.0*
%
%ADD32ROTATEDRECTD32*%

%ADD33R,0.05118X0.26575*%
%ADD34C,0.07000*%
%ADD35C,0.01200*%
%ADD36C,0.04000*%
%ADD37C,0.01500*%
%ADD38C,0.01000*%
%ADD39C,0.02500*%
%ADD40C,0.01400*%
%ADD41P,0.08485X4X360.0*%
%ADD42C,0.06000*%
%ADD43R,0.06000X0.06000*%
%ADD44P,0.08485X4X270.0*%
%ADD45P,0.09900X4X180.0*%
%ADD46C,0.07000*%
%ADD47R,0.06000X0.06000*%
%ADD48C,0.27559*%
%ADD49C,0.06693*%
%ADD50C,0.05000*%
D10*
X690712Y237221D02*
G03*
X692091Y208382I15108J-13730D01*
G01*
X716205Y208480D02*
G03*
X719650Y235350I-11712J15157D01*
G01*
X991520Y506205D02*
G03*
X964650Y509650I-15157J-11712D01*
G01*
X962780Y480712D02*
G03*
X991618Y482091I13730J15108D01*
G01*
X445221Y507288D02*
G03*
X416382Y505909I-13730J-15108D01*
G01*
X416480Y481795D02*
G03*
X443350Y478350I15157J11712D01*
G01*
X687795Y781520D02*
G03*
X684350Y754650I11712J-15157D01*
G01*
X713288Y752779D02*
G03*
X711909Y781618I-15108J13730D01*
G01*
X733326Y384700D02*
X740626Y392000D01*
X726900Y384700D02*
X733326D01*
X658111Y432111D02*
X670711D01*
X671100Y432600D02*
X686600Y448100D01*
X690545D01*
X697845Y440800D02*
X700700D01*
X706700Y446800D01*
X663400Y491700D02*
X671300Y499600D01*
X706700Y446800D02*
Y453300D01*
D11*
X840931Y471833D02*
G03*
X829874Y466460I63206J-144152D01*
G01*
X857828Y501928D02*
G03*
X853578Y501922I-2122J-2121D01*
G01*
X857872Y501772D02*
G03*
X862122Y501778I2122J2121D01*
G01*
X920500Y489900D02*
G03*
X925046Y490253I2122J2121D01*
G01*
X920100Y490300D02*
G03*
X915850Y490294I-2122J-2121D01*
G01*
X911300Y489900D02*
G03*
X915550Y489906I2122J2121D01*
G01*
X910900Y490300D02*
G03*
X906650Y490294I-2122J-2121D01*
G01*
X902050Y489894D02*
G03*
X906300Y489900I2122J2121D01*
G01*
X901550Y490306D02*
G03*
X897300Y490300I-2122J-2121D01*
G01*
X892700Y489900D02*
G03*
X896950Y489906I2122J2121D01*
G01*
X892300Y490300D02*
G03*
X888050Y490294I-2122J-2121D01*
G01*
X883500Y489900D02*
G03*
X887750Y489906I2122J2121D01*
G01*
X883100Y490300D02*
G03*
X878850Y490294I-2122J-2121D01*
G01*
X874072Y489872D02*
G03*
X878322Y489878I2122J2121D01*
G01*
X873628Y490328D02*
G03*
X869378Y490322I-2122J-2121D01*
G01*
X864772Y489972D02*
G03*
X869022Y489978I2122J2121D01*
G01*
X866928Y502128D02*
G03*
X862678Y502122I-2122J-2121D01*
G01*
X867372Y501772D02*
G03*
X871622Y501778I2122J2121D01*
G01*
X876228Y502128D02*
G03*
X871978Y502122I-2122J-2121D01*
G01*
X876672Y501672D02*
G03*
X880922Y501678I2122J2121D01*
G01*
X885700Y502100D02*
G03*
X881450Y502094I-2122J-2121D01*
G01*
X886100Y501700D02*
G03*
X890350Y501706I2122J2121D01*
G01*
X894900Y502100D02*
G03*
X890650Y502094I-2122J-2121D01*
G01*
X895300Y501700D02*
G03*
X899550Y501706I2122J2121D01*
G01*
X904150Y502106D02*
G03*
X899900Y502100I-2122J-2121D01*
G01*
X904650Y501694D02*
G03*
X908900Y501700I2122J2121D01*
G01*
X913500Y502100D02*
G03*
X909250Y502094I-2122J-2121D01*
G01*
X913900Y501700D02*
G03*
X918150Y501706I2122J2121D01*
G01*
X922700Y502100D02*
G03*
X918450Y502094I-2122J-2121D01*
G01*
X923100Y501700D02*
G03*
X927350Y501706I2122J2121D01*
G01*
X932128Y502128D02*
G03*
X927878Y502122I-2122J-2121D01*
G01*
X707706Y694850D02*
G03*
X707700Y699100I-2121J2122D01*
G01*
X710372Y289328D02*
G03*
X710378Y285078I2121J-2122D01*
G01*
X710728Y289772D02*
G03*
X710722Y294022I-2121J2122D01*
G01*
X710372Y298628D02*
G03*
X710378Y294378I2121J-2122D01*
G01*
X710828Y299072D02*
G03*
X710822Y303322I-2121J2122D01*
G01*
X710400Y308100D02*
G03*
X710406Y303850I2121J-2122D01*
G01*
X710800Y308500D02*
G03*
X710794Y312750I-2121J2122D01*
G01*
X710400Y317300D02*
G03*
X710406Y313050I2121J-2122D01*
G01*
X710800Y317700D02*
G03*
X710794Y321950I-2121J2122D01*
G01*
X710394Y326550D02*
G03*
X710400Y322300I2121J-2122D01*
G01*
X710806Y327050D02*
G03*
X710800Y331300I-2121J2122D01*
G01*
X710400Y335900D02*
G03*
X710406Y331650I2121J-2122D01*
G01*
X710800Y336300D02*
G03*
X710794Y340550I-2121J2122D01*
G01*
X710400Y345100D02*
G03*
X710406Y340850I2121J-2122D01*
G01*
X710800Y345500D02*
G03*
X710794Y349750I-2121J2122D01*
G01*
X710628Y280272D02*
G03*
X710622Y284522I-2121J2122D01*
G01*
X710772Y280328D02*
G03*
X710778Y276078I2121J-2122D01*
G01*
X707711Y272604D02*
G03*
X710712Y275614I1J3000D01*
G01*
X697528Y271472D02*
G03*
X697522Y275722I-2121J2122D01*
G01*
X697100Y280500D02*
G03*
X697106Y276250I2121J-2122D01*
G01*
X697500Y280900D02*
G03*
X697494Y285150I-2121J2122D01*
G01*
X697100Y289700D02*
G03*
X697106Y285450I2121J-2122D01*
G01*
X697500Y290100D02*
G03*
X697494Y294350I-2121J2122D01*
G01*
X697094Y298950D02*
G03*
X697100Y294700I2121J-2122D01*
G01*
X697506Y299450D02*
G03*
X697500Y303700I-2121J2122D01*
G01*
X697100Y308300D02*
G03*
X697106Y304050I2121J-2122D01*
G01*
X697500Y308700D02*
G03*
X697494Y312950I-2121J2122D01*
G01*
X697100Y317500D02*
G03*
X697106Y313250I2121J-2122D01*
G01*
X697500Y317900D02*
G03*
X697494Y322150I-2121J2122D01*
G01*
X697072Y326928D02*
G03*
X697078Y322678I2121J-2122D01*
G01*
X697528Y327472D02*
G03*
X697522Y331722I-2121J2122D01*
G01*
X697100Y336500D02*
G03*
X697106Y332250I2121J-2122D01*
G01*
X689669Y346570D02*
G03*
X653174Y403874I-147577J-53714D01*
G01*
X473828Y486928D02*
G03*
X470268Y487441I-2122J-2121D01*
G01*
X474272Y486572D02*
G03*
X478522Y486578I2122J2121D01*
G01*
X483128Y486928D02*
G03*
X478878Y486922I-2122J-2121D01*
G01*
X483572Y486472D02*
G03*
X487822Y486478I2122J2121D01*
G01*
X492600Y486900D02*
G03*
X488350Y486894I-2122J-2121D01*
G01*
X493000Y486500D02*
G03*
X497250Y486506I2122J2121D01*
G01*
X501800Y486900D02*
G03*
X497550Y486894I-2122J-2121D01*
G01*
X502200Y486500D02*
G03*
X506450Y486506I2122J2121D01*
G01*
X511050Y486906D02*
G03*
X506800Y486900I-2122J-2121D01*
G01*
X511550Y486494D02*
G03*
X515800Y486500I2122J2121D01*
G01*
X520400Y486900D02*
G03*
X516150Y486894I-2122J-2121D01*
G01*
X520800Y486500D02*
G03*
X525050Y486506I2122J2121D01*
G01*
X529600Y486900D02*
G03*
X525350Y486894I-2122J-2121D01*
G01*
X482928Y499628D02*
G03*
X478776Y499717I-2122J-2121D01*
G01*
X483372Y499272D02*
G03*
X487622Y499278I2122J2121D01*
G01*
X492228Y499628D02*
G03*
X487978Y499622I-2122J-2121D01*
G01*
X492672Y499172D02*
G03*
X496922Y499178I2122J2121D01*
G01*
X501700Y499600D02*
G03*
X497450Y499594I-2122J-2121D01*
G01*
X502100Y499200D02*
G03*
X506350Y499206I2122J2121D01*
G01*
X510900Y499600D02*
G03*
X506650Y499594I-2122J-2121D01*
G01*
X511300Y499200D02*
G03*
X515550Y499206I2122J2121D01*
G01*
X520150Y499606D02*
G03*
X515900Y499600I-2122J-2121D01*
G01*
X520650Y499194D02*
G03*
X524900Y499200I2122J2121D01*
G01*
X529500Y499600D02*
G03*
X525250Y499594I-2122J-2121D01*
G01*
X530000Y486500D02*
G03*
X534250Y486506I2122J2121D01*
G01*
X707293Y703728D02*
G03*
X707300Y699300I2209J-2211D01*
G01*
X706894Y712950D02*
G03*
X706900Y708700I2121J-2122D01*
G01*
X707100Y713200D02*
G03*
X707094Y717450I-2121J2122D01*
G01*
X707194Y722050D02*
G03*
X707200Y717800I2121J-2122D01*
G01*
X692772Y695828D02*
G03*
X692778Y691578I2121J-2122D01*
G01*
X693200Y686800D02*
G03*
X693194Y691050I-2121J2122D01*
G01*
X692800Y686400D02*
G03*
X692806Y682150I2121J-2122D01*
G01*
X693200Y677600D02*
G03*
X693194Y681850I-2121J2122D01*
G01*
X692800Y677200D02*
G03*
X692806Y672950I2121J-2122D01*
G01*
X693206Y668350D02*
G03*
X693200Y672600I-2121J2122D01*
G01*
X692794Y667850D02*
G03*
X692800Y663600I2121J-2122D01*
G01*
X693200Y659000D02*
G03*
X693194Y663250I-2121J2122D01*
G01*
X692800Y658600D02*
G03*
X692806Y654350I2121J-2122D01*
G01*
X693200Y649800D02*
G03*
X693194Y654050I-2121J2122D01*
G01*
X692800Y649400D02*
G03*
X692806Y645150I2121J-2122D01*
G01*
X693228Y640372D02*
G03*
X693222Y644622I-2121J2122D01*
G01*
X692772Y639928D02*
G03*
X692778Y635678I2121J-2122D01*
G01*
X693128Y631072D02*
G03*
X693122Y635322I-2121J2122D01*
G01*
X692772Y630628D02*
G03*
X692778Y626378I2121J-2122D01*
G01*
X707372Y694328D02*
G03*
X707378Y690078I2121J-2122D01*
G01*
X707800Y685300D02*
G03*
X707794Y689550I-2121J2122D01*
G01*
X707400Y684900D02*
G03*
X707406Y680650I2121J-2122D01*
G01*
X707800Y676100D02*
G03*
X707794Y680350I-2121J2122D01*
G01*
X707400Y675700D02*
G03*
X707406Y671450I2121J-2122D01*
G01*
X707806Y666850D02*
G03*
X707800Y671100I-2121J2122D01*
G01*
X707394Y666350D02*
G03*
X707400Y662100I2121J-2122D01*
G01*
X707800Y657500D02*
G03*
X707794Y661750I-2121J2122D01*
G01*
X707400Y657100D02*
G03*
X707406Y652850I2121J-2122D01*
G01*
X707800Y648300D02*
G03*
X707794Y652550I-2121J2122D01*
G01*
X707400Y647900D02*
G03*
X707406Y643650I2121J-2122D01*
G01*
X707828Y638872D02*
G03*
X707822Y643122I-2121J2122D01*
G01*
X707372Y638428D02*
G03*
X707378Y634178I2121J-2122D01*
G01*
X707728Y629572D02*
G03*
X707722Y633822I-2121J2122D01*
G01*
X707372Y629128D02*
G03*
X707378Y624878I2121J-2122D01*
G01*
X692828Y695072D02*
G03*
X692822Y699322I-2121J2122D01*
G01*
X692400Y704100D02*
G03*
X692406Y699850I2121J-2122D01*
G01*
X692800Y704500D02*
G03*
X692794Y708750I-2121J2122D01*
G01*
X692400Y713300D02*
G03*
X692406Y709050I2121J-2122D01*
G01*
X692800Y713700D02*
G03*
X692794Y717950I-2121J2122D01*
G01*
X707128Y703872D02*
G03*
X707122Y708122I-2121J2122D01*
G01*
X795300Y542600D02*
G03*
X825468Y521782I103872J118260D01*
G01*
X725129Y624031D02*
G03*
X756807Y580903I140849J70260D01*
G01*
X529900Y499200D02*
G03*
X532361Y498340I2122J2121D01*
G01*
X707789Y272396D02*
G03*
X705142Y267983I-1J-3000D01*
G01*
X692394Y722550D02*
G03*
X692400Y718300I2121J-2122D01*
G01*
X697072Y271028D02*
G03*
X697078Y266778I2121J-2122D01*
G01*
X621866Y437053D02*
G03*
X561722Y475780I-113056J-109513D01*
G01*
X697500Y336900D02*
G03*
X697494Y341150I-2121J2122D01*
G01*
X676500Y619600D02*
X691900D01*
X674200Y617300D02*
X676500Y619600D01*
X776900Y431000D02*
X781200Y435300D01*
X778600Y425500D02*
Y429500D01*
X777500Y430600D02*
X778600Y429500D01*
Y425500D02*
X779200Y424900D01*
X769900Y415600D02*
X779200Y424900D01*
X763200Y415600D02*
X769900D01*
X774300Y463700D02*
Y486400D01*
X780900Y436300D02*
X783700D01*
X780800Y436200D02*
X780900Y436300D01*
X781200Y435300D02*
Y436000D01*
X543094Y480032D02*
X556049Y477206D01*
X538700Y498800D02*
X545900D01*
X552476Y492224D01*
X671100Y584600D02*
X693200D01*
X659900Y569400D02*
Y571300D01*
X657658Y573542D02*
X659900Y571300D01*
X657658Y573542D02*
Y578058D01*
X668200Y585000D02*
X669300Y583900D01*
X664600Y585000D02*
X668200D01*
X657658Y578058D02*
X664600Y585000D01*
X674900Y588100D02*
X695900D01*
X674800D02*
X674900D01*
X673000Y590000D02*
X674900Y588100D01*
X625950Y545550D02*
Y548250D01*
Y545550D02*
X626000Y545600D01*
X620850Y540450D02*
X625950Y545550D01*
X645550Y570350D02*
X646100Y570900D01*
X645550Y567850D02*
Y570350D01*
X665100Y590000D02*
X673000D01*
X646150Y571050D02*
X665100Y590000D01*
X649700Y559200D02*
X659900Y569400D01*
X598023Y492323D02*
X604528Y498828D01*
X836100Y505800D02*
X838409Y503491D01*
X827500Y505800D02*
X836100D01*
X850000Y501400D02*
X852900D01*
X840277Y491677D02*
X850000Y501400D01*
X848700Y493200D02*
X861300D01*
X842059Y486559D02*
X848700Y493200D01*
X690545Y448100D02*
X697845Y440800D01*
X670711Y432111D02*
X671000Y432400D01*
X784100Y521600D02*
X790500Y528000D01*
X808100D01*
X541800Y481326D02*
X543094Y480032D01*
X808100Y528000D02*
X820900Y515200D01*
X626700Y522400D02*
Y526500D01*
X620800Y532400D02*
X626700Y526500D01*
X620800Y532400D02*
Y540400D01*
X625300Y521000D02*
X626700Y522400D01*
X625300Y521000D02*
Y521200D01*
X724900Y580400D02*
X726200Y581700D01*
X708400Y580400D02*
X724900D01*
X693200Y584600D02*
X697600Y580200D01*
X625950Y548250D02*
X645550Y567850D01*
X695900Y588100D02*
X698100Y585900D01*
X677374Y588383D02*
Y594000D01*
X705400Y585900D02*
X707800Y583500D01*
X698100Y585900D02*
X705400D01*
X846500Y484000D02*
X851500Y489000D01*
X840930Y471832D02*
X848498Y479400D01*
X822761Y466461D02*
X829875D01*
X848498Y479400D02*
X851900D01*
X861300Y493200D02*
X864500Y490000D01*
X767987Y477387D02*
X768100Y477500D01*
X767974Y477374D02*
X767987Y477387D01*
X763774Y481600D02*
X767987Y477387D01*
X768000Y477374D01*
X756700Y483500D02*
Y483600D01*
Y483500D02*
X758600Y481600D01*
X763774D01*
X767974Y477374D02*
X768000D01*
X767774D02*
X767974D01*
X766100Y475500D02*
X767974Y477374D01*
X755449Y475500D02*
X766100D01*
X768000Y487500D02*
X768800Y486700D01*
X752500Y492000D02*
Y495700D01*
X752800Y491900D02*
X759519D01*
X759619Y491800D01*
X762826D01*
X768000Y486626D01*
X774000Y486700D02*
X774300Y486400D01*
X768800Y486700D02*
X774000D01*
X749500Y498700D02*
X752500Y495700D01*
X741100Y498700D02*
X749500D01*
X734200Y491800D02*
X741100Y498700D01*
X714600Y491800D02*
X734200D01*
X691900Y619600D02*
X721600D01*
X556484Y501784D02*
X560827Y497441D01*
X464203Y493920D02*
X465702Y492421D01*
X939665Y496752D02*
X939862Y496555D01*
X786200Y502200D02*
X789400D01*
X812000Y456400D02*
X822000Y466400D01*
X779900Y464200D02*
X787700Y456400D01*
X779900Y464200D02*
Y496600D01*
X665889Y439889D02*
X671300Y445300D01*
Y445600D01*
X755449Y440500D02*
X763900D01*
X768600Y445200D01*
X755449Y445500D02*
X762100D01*
X764400Y447800D01*
Y450200D01*
X766900Y452700D01*
X779700D01*
X782000Y450400D01*
Y446400D02*
Y450400D01*
X790200Y442800D02*
Y447800D01*
X783700Y436300D02*
X790200Y442800D01*
X774300Y463700D02*
X790200Y447800D01*
X711497Y462503D02*
Y488697D01*
X714600Y491800D01*
X746000Y422000D02*
Y422500D01*
X707800Y580100D02*
Y583500D01*
X671100Y502200D02*
X671300Y502000D01*
X574200Y516600D02*
Y517000D01*
X568000Y502100D02*
X573500Y507600D01*
X703900Y404100D02*
X704000Y404000D01*
X826169Y507131D02*
X827500Y505800D01*
X674200Y612826D02*
Y617300D01*
X682500Y611874D02*
X682626Y612000D01*
X682500Y599000D02*
Y611874D01*
X706300Y354300D02*
X710800Y349800D01*
X699000Y354200D02*
X706300D01*
X686024Y367176D02*
X699000Y354200D01*
X703900Y264900D02*
Y268498D01*
X692500Y346400D02*
X697494Y341406D01*
X689600Y346401D02*
X692400D01*
X473619Y494781D02*
X478319Y499481D01*
X466800Y493800D02*
X469980Y487598D01*
X534250Y486506D02*
Y494350D01*
X538700Y498800D01*
X699650Y722550D02*
X699700Y722600D01*
X705553Y731791D02*
X707100Y730244D01*
Y722600D02*
Y730244D01*
X699902Y731791D02*
X705553D01*
X826169Y507131D02*
Y521300D01*
X707800Y624539D02*
X724900D01*
X789400Y502200D02*
X797100Y494500D01*
X758100Y544000D02*
X762300Y539800D01*
X743300Y544000D02*
X758100D01*
X727800Y559500D02*
X743300Y544000D01*
X727700Y559500D02*
X727800D01*
X932453Y501673D02*
X936427D01*
X939665Y498435D01*
Y496752D02*
Y498435D01*
X532361Y498340D02*
X537522Y503500D01*
X554800D01*
X556300Y502000D01*
X757249Y580451D02*
X794688Y543012D01*
X726200Y581700D02*
Y615000D01*
X721600Y619600D02*
X726200Y615000D01*
X672000Y396000D02*
Y399700D01*
X633548Y437052D02*
X641900Y428700D01*
X561500Y475700D02*
Y482291D01*
X563855Y484646D01*
X641900Y415900D02*
Y428700D01*
X642100Y415400D02*
X653300Y404000D01*
X779900Y496600D02*
X785800Y502500D01*
X787700Y456400D02*
X812000D01*
X692394Y722550D02*
X699650D01*
X697078Y260722D02*
X698900Y258900D01*
X703700D01*
X703800Y258800D01*
X621867Y437052D02*
X633548D01*
X697078Y260722D02*
Y266778D01*
X697494Y341150D02*
Y341406D01*
X924700Y490200D02*
X925300D01*
X931055Y495955D01*
Y496000D01*
D12*
X990889Y494255D02*
G03*
X990889Y494255I-15806J0D01*
G01*
X448723Y493745D02*
G03*
X448723Y493745I-15806J0D01*
G01*
X715551Y765083D02*
G03*
X715551Y765083I-15806J0D01*
G01*
X720061Y224917D02*
G03*
X720061Y224917I-15806J0D01*
G01*
D13*
X630111Y457889D02*
D03*
X637889Y450111D02*
D03*
D14*
X697059Y557821D02*
D03*
X695667Y556429D02*
D03*
X694275Y555037D02*
D03*
X692883Y553645D02*
D03*
X691491Y552253D02*
D03*
X690099Y550861D02*
D03*
X688707Y549469D02*
D03*
X687315Y548077D02*
D03*
X685923Y546685D02*
D03*
X684531Y545293D02*
D03*
X683139Y543901D02*
D03*
X681747Y542509D02*
D03*
X680355Y541117D02*
D03*
X678963Y539725D02*
D03*
X677571Y538333D02*
D03*
X676179Y536941D02*
D03*
X706941Y506179D02*
D03*
X708333Y507571D02*
D03*
X709725Y508963D02*
D03*
X711117Y510355D02*
D03*
X712509Y511747D02*
D03*
X713901Y513139D02*
D03*
X715293Y514531D02*
D03*
X716685Y515923D02*
D03*
X718077Y517315D02*
D03*
X719469Y518707D02*
D03*
X720861Y520099D02*
D03*
X722253Y521491D02*
D03*
X723645Y522883D02*
D03*
X725037Y524275D02*
D03*
X726429Y525667D02*
D03*
X727821Y527059D02*
D03*
D15*
X676179D02*
D03*
X677571Y525667D02*
D03*
X678963Y524275D02*
D03*
X680355Y522883D02*
D03*
X681747Y521491D02*
D03*
X683139Y520099D02*
D03*
X684531Y518707D02*
D03*
X685923Y517315D02*
D03*
X687315Y515923D02*
D03*
X688707Y514531D02*
D03*
X690099Y513139D02*
D03*
X691491Y511747D02*
D03*
X692883Y510355D02*
D03*
X694275Y508963D02*
D03*
X695667Y507571D02*
D03*
X697059Y506179D02*
D03*
X727821Y536941D02*
D03*
X726429Y538333D02*
D03*
X725037Y539725D02*
D03*
X723645Y541117D02*
D03*
X722253Y542509D02*
D03*
X720861Y543901D02*
D03*
X719469Y545293D02*
D03*
X718077Y546685D02*
D03*
X716685Y548077D02*
D03*
X715293Y549469D02*
D03*
X713901Y550861D02*
D03*
X712509Y552253D02*
D03*
X711117Y553645D02*
D03*
X709725Y555037D02*
D03*
X708333Y556429D02*
D03*
X706941Y557821D02*
D03*
D16*
X708161Y394661D02*
D03*
X710720D02*
D03*
X713279D02*
D03*
X715839D02*
D03*
X715839Y377339D02*
D03*
X713279D02*
D03*
X710720D02*
D03*
X708161D02*
D03*
D17*
X720661Y389839D02*
D03*
Y387280D02*
D03*
Y384720D02*
D03*
Y382161D02*
D03*
X703339Y382161D02*
D03*
Y384720D02*
D03*
Y387280D02*
D03*
D18*
Y389839D02*
D03*
D19*
X736551Y475500D02*
D03*
X736551Y470500D02*
D03*
X736551Y465500D02*
D03*
X736551Y460500D02*
D03*
Y455500D02*
D03*
X736551Y450500D02*
D03*
X736551Y445500D02*
D03*
X736551Y440500D02*
D03*
X755449Y475500D02*
D03*
X755449Y470500D02*
D03*
Y465500D02*
D03*
Y460500D02*
D03*
Y455500D02*
D03*
X755449Y450500D02*
D03*
X755449Y445500D02*
D03*
Y440500D02*
D03*
D20*
X657441Y462116D02*
D03*
X668020Y456827D02*
D03*
X662731Y451537D02*
D03*
D21*
X682000Y578000D02*
D03*
X669681Y565681D02*
D03*
X677894Y557469D02*
D03*
X690212Y569788D02*
D03*
D22*
X693807Y608637D02*
D03*
D23*
Y606669D02*
D03*
Y604700D02*
D03*
Y602732D02*
D03*
Y600763D02*
D03*
X707193D02*
D03*
Y602732D02*
D03*
Y604700D02*
D03*
Y606669D02*
D03*
Y608637D02*
D03*
D24*
X698531Y598007D02*
D03*
X700500D02*
D03*
X702468D02*
D03*
Y611491D02*
D03*
X700500D02*
D03*
X698531D02*
D03*
D25*
X832000Y484000D02*
D03*
X568000Y500000D02*
D03*
D26*
X832000Y486559D02*
D03*
X832000Y489118D02*
D03*
Y491677D02*
D03*
Y494236D02*
D03*
Y496795D02*
D03*
Y499354D02*
D03*
Y501913D02*
D03*
X809953Y484000D02*
D03*
X809953Y486559D02*
D03*
X809953Y489118D02*
D03*
X809953Y491677D02*
D03*
X809953Y494236D02*
D03*
Y496795D02*
D03*
X809953Y499354D02*
D03*
X809953Y501913D02*
D03*
X590047Y482087D02*
D03*
X590047Y484646D02*
D03*
X590047Y487205D02*
D03*
X590047Y489764D02*
D03*
X590047Y492323D02*
D03*
X590047Y494882D02*
D03*
X590047Y497441D02*
D03*
X590047Y500000D02*
D03*
X568000Y482087D02*
D03*
X568000Y484646D02*
D03*
X568000Y487205D02*
D03*
X568000Y489764D02*
D03*
X568000Y492323D02*
D03*
X568000Y494882D02*
D03*
Y497441D02*
D03*
D27*
X821000Y493000D02*
D03*
X579000Y491000D02*
D03*
D28*
X822000Y476626D02*
D03*
Y467374D02*
D03*
X720000Y581374D02*
D03*
Y590626D02*
D03*
X604000Y479374D02*
D03*
Y488626D02*
D03*
X768000Y486626D02*
D03*
Y477374D02*
D03*
X720000Y484626D02*
D03*
Y475374D02*
D03*
X716000Y444626D02*
D03*
Y435374D02*
D03*
X852000Y479374D02*
D03*
Y488626D02*
D03*
X574000Y516626D02*
D03*
Y507374D02*
D03*
X542000Y494626D02*
D03*
Y485374D02*
D03*
D29*
X704197Y208382D02*
D03*
X699803Y781618D02*
D03*
D30*
X743374Y492000D02*
D03*
X752626D02*
D03*
X780626Y436000D02*
D03*
X771374D02*
D03*
X740626Y392000D02*
D03*
X731374D02*
D03*
X717374Y406000D02*
D03*
X726626D02*
D03*
X673374Y612000D02*
D03*
X682626D02*
D03*
X830626Y512000D02*
D03*
X821374D02*
D03*
X677374Y594000D02*
D03*
X686626D02*
D03*
X748626Y406000D02*
D03*
X739374D02*
D03*
X713374Y498000D02*
D03*
X722626D02*
D03*
X681374Y380000D02*
D03*
X690626D02*
D03*
D31*
X662729Y576729D02*
D03*
X669271Y583271D02*
D03*
X642729Y552729D02*
D03*
X649271Y559271D02*
D03*
X656729Y484729D02*
D03*
X663271Y491271D02*
D03*
X638729Y466729D02*
D03*
X645271Y473271D02*
D03*
X658729Y432729D02*
D03*
X665271Y439271D02*
D03*
X642729Y574729D02*
D03*
X649271Y581271D02*
D03*
D32*
X662729Y419271D02*
D03*
X669271Y412729D02*
D03*
X625271Y520729D02*
D03*
X618729Y527271D02*
D03*
D33*
X991618Y494197D02*
D03*
X416382Y493803D02*
D03*
D34*
X711972Y241158D02*
Y252378D01*
X695929Y241650D02*
Y252181D01*
X947819Y485929D02*
X958350D01*
X947622Y501972D02*
X958842D01*
X449157Y486028D02*
X460378D01*
X449650Y502071D02*
X460181D01*
X708071Y737819D02*
Y748350D01*
X692028Y737622D02*
Y748842D01*
D35*
X686100Y617100D02*
X687100Y616100D01*
X679700Y617100D02*
X686100D01*
X678200Y615600D02*
X679700Y617100D01*
X671700Y603600D02*
X674800D01*
X661900Y593800D02*
X671700Y603600D01*
X720661Y384700D02*
X726900D01*
X687700Y556000D02*
X690527D01*
X692883Y553645D01*
X651400Y540472D02*
Y549000D01*
X641500Y530572D02*
X651400Y540472D01*
X680400Y579400D02*
X681300Y578500D01*
X674700Y579400D02*
X680400D01*
X672029Y576729D02*
X674700Y579400D01*
X662729Y576729D02*
X672029D01*
X832000Y491677D02*
X840277D01*
X702400Y415600D02*
X704000Y414000D01*
X791600Y525200D02*
X805900D01*
X785200Y518800D02*
X791600Y525200D01*
X635900Y530100D02*
X641500D01*
X628000Y538000D02*
X635900Y530100D01*
X708000Y580000D02*
X708400Y580400D01*
X617700Y526300D02*
X618600Y527200D01*
X617700Y520500D02*
Y526300D01*
Y520500D02*
X624000Y514200D01*
X627300D01*
X629200Y516100D01*
X631500D01*
X682000Y577800D02*
Y578000D01*
Y567400D02*
Y577800D01*
X682100Y577900D01*
X680929Y576729D02*
X682000Y577800D01*
Y567400D02*
X688400Y561000D01*
X669681Y557481D02*
Y565681D01*
X651500Y549600D02*
X657372Y555472D01*
X698531Y592000D02*
X702000D01*
X689700D02*
X698531D01*
Y598007D01*
X687300Y594400D02*
X689700Y592000D01*
X852900Y501400D02*
X853400Y501900D01*
X840947Y496983D02*
X840983D01*
X838200Y494236D02*
X840947Y496983D01*
X832000Y494236D02*
X838200D01*
X717900Y602000D02*
X720700Y599200D01*
X715800Y594300D02*
X720700Y599200D01*
X710800Y594300D02*
X715800D01*
X637500Y510100D02*
X649700D01*
X631500Y516100D02*
X637500Y510100D01*
X749000Y531000D02*
X750200Y532200D01*
X739200Y531000D02*
X749000D01*
X731100Y522900D02*
X739200Y531000D01*
X706012Y599088D02*
X710800Y594300D01*
X580512Y492126D02*
X580709Y492323D01*
X556398Y487992D02*
X558169Y489764D01*
X591240Y494783D02*
X596440D01*
X603937Y518012D02*
X604528Y517421D01*
X558169Y489764D02*
X568000D01*
X568209Y492224D02*
X568307Y492323D01*
X809953Y476347D02*
Y484000D01*
Y476347D02*
X810000Y476300D01*
X796400Y487200D02*
X798318Y489118D01*
X796400Y467700D02*
Y487200D01*
Y467700D02*
X798100Y466000D01*
X689069Y602732D02*
X694988D01*
X672200Y397200D02*
X672800Y397800D01*
X728811Y520500D02*
X732600D01*
X739200Y527100D01*
X763900D01*
X772200Y518800D01*
X785200D01*
X805900Y525200D02*
X809900Y521200D01*
Y514800D02*
Y521200D01*
X720861Y520099D02*
X726660Y514300D01*
X735200D01*
X741800Y520900D01*
X761200D01*
X774300Y507800D01*
X711000Y442800D02*
Y455900D01*
X697000Y428800D02*
X711000Y442800D01*
X688500Y428800D02*
X697000D01*
X683700Y433600D02*
X688500Y428800D01*
X651400Y508458D02*
X654929Y504929D01*
X697059Y469841D02*
X711000Y455900D01*
X697059Y469841D02*
Y506179D01*
X706012Y599088D02*
Y600500D01*
X649700Y510100D02*
X651300Y508500D01*
X583324Y515424D02*
X583500Y515600D01*
X549300Y482600D02*
X549400Y482700D01*
X822000Y476626D02*
X829974D01*
X649271Y581271D02*
X661900Y593900D01*
X687100Y603800D02*
Y616100D01*
X674800Y603600D02*
X678200Y607000D01*
Y615600D01*
X706300Y354200D02*
Y354300D01*
X686024Y367176D02*
Y368406D01*
X846200Y502200D02*
Y503300D01*
D36*
X745900Y422000D02*
Y426000D01*
X748626Y406000D02*
X751726Y409100D01*
X704200Y414000D02*
X727879D01*
X704000D02*
X704200D01*
X746400Y412800D02*
X750300Y408900D01*
X729080Y412800D02*
X746400D01*
X727879Y414000D02*
X729080Y412800D01*
X740800Y392100D02*
X748626Y399926D01*
Y406000D01*
X756700Y409100D02*
X763200Y415600D01*
X751726Y409100D02*
X756700D01*
X760000Y428900D02*
X763200Y425700D01*
Y415600D02*
Y425700D01*
X748600Y428900D02*
X760000D01*
X745800Y426100D02*
X748600Y428900D01*
X580600Y490600D02*
X581500Y489700D01*
Y475500D02*
Y489700D01*
X604528Y498828D02*
Y517421D01*
X658111Y423689D02*
X662650Y419150D01*
X698729Y419271D02*
X703700Y414300D01*
X662729Y419271D02*
X698729D01*
X624500Y497400D02*
Y507600D01*
X608000Y524100D02*
X624500Y507600D01*
X581300Y524100D02*
X608000D01*
X671000Y459750D02*
X682500D01*
X656500Y446100D02*
X661550Y451150D01*
X656500Y433722D02*
Y446100D01*
X643000Y462200D02*
X656900D01*
X639200Y466000D02*
X643000Y462200D01*
X626300Y466000D02*
X639200D01*
X686050Y459750D02*
X697300Y448500D01*
X656500Y433722D02*
X658111Y432111D01*
X642400Y454622D02*
Y461600D01*
X637889Y450111D02*
X642400Y454622D01*
X615600Y476700D02*
X626300Y466000D01*
X604528Y499902D02*
X616043D01*
X790000Y467800D02*
Y488100D01*
X786300Y491800D02*
X790000Y488100D01*
X682500Y459750D02*
X686050D01*
X574200Y517000D02*
X581300Y524100D01*
X616500Y489400D02*
X624500Y497400D01*
X603575Y489500D02*
X615600D01*
Y476700D02*
Y489500D01*
X645305Y431600D02*
X645405Y431500D01*
X649795D01*
X649895Y431600D01*
X655100D01*
X677000Y383500D02*
X680500Y380000D01*
X677000Y383500D02*
Y390950D01*
X671950Y396000D02*
X677000Y390950D01*
X658111Y423689D02*
Y432111D01*
X672000Y399700D02*
X676400Y404100D01*
X669271Y412729D02*
X677100Y404900D01*
Y404100D02*
X703900D01*
X645300Y431600D02*
X645305D01*
X634300Y442600D02*
X645300Y431600D01*
X622300Y442600D02*
X634300D01*
X614929Y451071D02*
X622058Y458200D01*
X630300D01*
X638089Y450111D02*
X647500Y440700D01*
Y437700D02*
Y440700D01*
D37*
X704100Y414100D02*
X704200Y414000D01*
X709300Y408900D01*
X755150Y416350D02*
X756000Y417200D01*
X754950Y416150D02*
X755150Y416350D01*
X755200Y416300D01*
X730550Y416350D02*
X755150D01*
X552476Y492224D02*
X568209D01*
X669700Y583200D02*
X671100Y584600D01*
X642600Y574600D02*
X646150Y571050D01*
X643600Y552000D02*
X650000D01*
X664200Y566200D02*
X668600D01*
X650000Y552000D02*
X664200Y566200D01*
X596555Y487205D02*
X598200Y485560D01*
Y480400D02*
Y485560D01*
X590047Y492323D02*
X598023D01*
X837248Y496795D02*
X840959Y500506D01*
Y506441D01*
X840800Y506600D02*
X840959Y506441D01*
X838409Y501491D02*
Y503491D01*
X832000Y486559D02*
X842059D01*
X635700Y542200D02*
X646800D01*
X615400Y530400D02*
X618500Y527300D01*
X615400Y530400D02*
Y534000D01*
X618000Y536600D01*
Y546000D01*
X670400Y592900D02*
Y595500D01*
X832000Y484000D02*
X846500D01*
X840983Y496983D02*
X846200Y502200D01*
X847900Y510000D02*
X848100Y509800D01*
X844500Y510000D02*
X847900D01*
X841100Y506600D02*
X844500Y510000D01*
X840800Y506600D02*
X841100D01*
X835700Y511700D02*
X840800Y506600D01*
X670400Y595500D02*
X673500Y598600D01*
X557400Y482700D02*
X561905Y487205D01*
X568000D01*
X580709Y492323D02*
X590047D01*
X596752Y499311D02*
Y501378D01*
X594882Y497441D02*
X596752Y499311D01*
X590047Y497441D02*
X594882D01*
X583324Y506724D02*
X590047Y500000D01*
X563855Y484646D02*
X568000D01*
X590047Y489764D02*
X603839D01*
X595174Y470800D02*
Y480113D01*
X595146Y480341D02*
Y484087D01*
X594587Y484646D02*
X595146Y484087D01*
X590047Y484646D02*
X594587D01*
X590047Y487205D02*
X596555D01*
X558900Y494882D02*
X568000D01*
X560827Y497441D02*
X568000D01*
X832000Y496795D02*
X837248D01*
X832000Y499354D02*
X836272D01*
X838409Y501491D01*
X805959Y486559D02*
X809953D01*
X787223Y491677D02*
X809953D01*
X786600Y492300D02*
X787223Y491677D01*
X798318Y489118D02*
X809953D01*
X804500Y469000D02*
X809600Y463900D01*
X804500Y469000D02*
Y485100D01*
X805959Y486559D01*
X788100Y465900D02*
X790000Y467800D01*
X822000Y466400D02*
Y466500D01*
X809953Y491677D02*
X818977D01*
X819100Y491800D01*
X802405Y496795D02*
X809953D01*
X798500Y500700D02*
X802405Y496795D01*
X809953Y501913D02*
Y513953D01*
X810000Y514000D01*
X805846Y499354D02*
X809953D01*
X798100Y507100D02*
X805846Y499354D01*
X798100Y507100D02*
Y513800D01*
X736551Y423351D02*
Y440500D01*
X732300Y445500D02*
X736551D01*
X728600Y441800D02*
X732300Y445500D01*
X728600Y418300D02*
Y441800D01*
Y418300D02*
X730550Y416350D01*
X756000Y417200D02*
Y421600D01*
X774300Y486700D02*
Y507700D01*
X774200Y486600D02*
X774300Y486700D01*
X587500Y510630D02*
X596752Y501378D01*
X682500Y459750D02*
Y499973D01*
X618700Y545522D02*
Y545800D01*
X704400Y455600D02*
X706700Y453300D01*
X583324Y506724D02*
Y515424D01*
X556050Y497550D02*
X558800Y494800D01*
X542000Y494626D02*
X546274D01*
X548700Y492200D01*
Y483700D02*
Y492200D01*
X549400Y482700D02*
X557400D01*
X568000Y500000D02*
Y502100D01*
X598300Y480400D02*
X599500Y479200D01*
X604000D01*
X709300Y400900D02*
Y408900D01*
Y400900D02*
X710600Y399600D01*
X710700Y396500D02*
Y399600D01*
X726626Y406000D02*
X738500D01*
X738800Y405700D01*
X831100Y511700D02*
X835700D01*
X830700Y512100D02*
X831100Y511700D01*
X822600Y466300D02*
X822761Y466461D01*
X673374Y612000D02*
X674200Y612826D01*
X673500Y598600D02*
X690800D01*
X671700Y396300D02*
X671900D01*
X603575Y489500D02*
X603937Y489862D01*
X797100Y494500D02*
X797364Y494236D01*
X809953D01*
X641900Y415900D02*
X642100Y415400D01*
X556049Y477206D02*
X556090Y477197D01*
D38*
X710700Y384600D02*
Y388600D01*
X714400D01*
X710600D02*
X710700D01*
Y393900D01*
X714400Y388600D02*
X715839Y390039D01*
Y394661D01*
X720700Y398400D02*
X726200Y392900D01*
Y385000D02*
Y392900D01*
X717200Y398400D02*
X720700D01*
X715839Y397039D02*
X717200Y398400D01*
X715839Y394661D02*
Y397039D01*
X720600Y384720D02*
Y387200D01*
Y384700D02*
Y384720D01*
X720400Y381900D02*
Y384400D01*
X720600Y384720D02*
X720661D01*
X710820D02*
X720600D01*
X682000Y550500D02*
X687450Y555950D01*
X676346Y550500D02*
X682000D01*
X669546Y557300D02*
X676346Y550500D01*
X666800Y466800D02*
X677600Y477600D01*
Y498000D02*
X686800Y507200D01*
X677600Y477600D02*
Y498000D01*
X848600Y496500D02*
X855100D01*
X841218Y489118D02*
X848600Y496500D01*
X832000Y489118D02*
X841218D01*
X697000Y546600D02*
X699700Y549300D01*
X641500Y530100D02*
Y530572D01*
Y522900D02*
Y530100D01*
X688100Y561211D02*
X694275Y555037D01*
X669500Y557300D02*
X669681Y557481D01*
X669500Y557300D02*
X669546D01*
X657272Y555500D02*
X668700D01*
X658100Y553500D02*
X666700D01*
X653400Y548800D02*
X658100Y553500D01*
X661900Y551500D02*
X667043D01*
X658000Y547600D02*
X661900Y551500D01*
X674400Y544289D02*
Y546972D01*
X667872Y553500D02*
X674400Y546972D01*
X665760Y547360D02*
X676179Y536941D01*
X672456Y551800D02*
X681747Y542509D01*
X653400Y526900D02*
Y548800D01*
X651400Y549300D02*
Y549628D01*
X672100Y544000D02*
Y546443D01*
X667043Y551500D02*
X672100Y546443D01*
X674400Y544289D02*
X678963Y539725D01*
X672456Y551800D02*
Y551844D01*
X671300Y553000D02*
X672456Y551844D01*
X671200Y553000D02*
X671300D01*
X668700Y555500D02*
X671200Y553000D01*
X752400Y513900D02*
X769500Y496800D01*
X712500Y494400D02*
Y498000D01*
X702500Y610400D02*
Y614800D01*
X704500Y619400D02*
Y619500D01*
X702600Y617500D02*
X704500Y619400D01*
X702600Y617500D02*
X703900Y616200D01*
X691900Y619600D02*
Y619700D01*
Y618900D02*
Y619600D01*
Y618900D02*
X693800Y617000D01*
X691700Y614900D02*
X693800Y617000D01*
X691700Y614900D02*
X693600Y613000D01*
X691600Y611000D02*
X693600Y613000D01*
X691444Y611000D02*
X691600D01*
X691444D02*
X693807Y608637D01*
X702500Y614800D02*
X703900Y616200D01*
X712468Y602732D02*
X713600Y601600D01*
Y598500D02*
Y601600D01*
X707193Y602732D02*
X712468D01*
X718200Y611100D02*
Y613600D01*
X711800Y604700D02*
X718200Y611100D01*
X706012Y604700D02*
X711800D01*
X682500Y459500D02*
Y459750D01*
X690800Y598600D02*
X692963Y600763D01*
X661500Y501200D02*
X667543Y507243D01*
Y512538D01*
X653400Y526900D02*
X667500Y512800D01*
X658270Y495230D02*
X683139Y520099D01*
X705200Y573800D02*
X722700D01*
X686240Y523200D02*
X686600D01*
X689000Y523800D02*
X693700Y519100D01*
X686600Y523800D02*
X689000D01*
X686600D02*
Y528300D01*
Y523200D02*
Y523800D01*
Y528300D02*
X707000Y548700D01*
X708956D01*
X712509Y552253D01*
X713944Y529800D02*
X722253Y521491D01*
X707226Y529800D02*
X713944D01*
X695263Y517837D02*
X707226Y529800D01*
X693950Y518950D02*
X695600Y517300D01*
X771344Y526343D02*
X787900Y542900D01*
X767344Y526343D02*
X771344D01*
X752387Y541300D02*
X767344Y526343D01*
X740926Y541300D02*
X752387D01*
X717759Y557741D02*
X724485D01*
X712509Y552253D02*
X717759Y557503D01*
X762300Y539500D02*
Y539800D01*
X718900Y592400D02*
X719800Y591500D01*
X709257Y592400D02*
X718900D01*
X702469Y599188D02*
X709257Y592400D01*
X618300Y543817D02*
Y545900D01*
X590047Y477276D02*
Y482087D01*
X596440Y494783D02*
X600886Y499230D01*
Y511114D01*
X594000Y518000D02*
X600886Y511114D01*
X566043Y500000D02*
X568000D01*
X567961Y494921D02*
X568000Y494882D01*
X809600Y463900D02*
X810000D01*
X702468Y602732D02*
X706012D01*
X701600Y603600D02*
X702468Y602732D01*
X701600Y603600D02*
Y606100D01*
X702200Y606700D01*
X702300D01*
X702732Y606669D02*
X706012D01*
X700500Y599188D02*
X702388D01*
X702400Y599200D01*
X692963Y600763D02*
X694988D01*
X687900Y603900D02*
X689069Y602732D01*
X681700Y393900D02*
Y395200D01*
X722700Y573800D02*
X738900Y590000D01*
X723028Y571300D02*
X739728Y588000D01*
X750716Y562355D02*
X757200Y568840D01*
X750716Y558213D02*
Y562355D01*
Y558213D02*
X760716Y548213D01*
X760787D01*
X762700Y546300D01*
X706941Y557821D02*
X713410Y564290D01*
X758800Y546700D02*
X761429Y544071D01*
X764858D01*
X769629Y539300D01*
X776900D01*
X770000Y532100D02*
X770100D01*
X713410Y564290D02*
Y567110D01*
X708333Y556429D02*
X716705Y564800D01*
X727821Y527059D02*
X735762Y535000D01*
X741200D01*
X726429Y525667D02*
X729195Y522900D01*
X731100D01*
X725037Y524275D02*
X728811Y520500D01*
X798000Y514000D02*
Y520100D01*
X796300Y521800D02*
X798000Y520100D01*
X786070Y516700D02*
X791170Y521800D01*
X771200Y516700D02*
X786070D01*
X762900Y525000D02*
X771200Y516700D01*
X740070Y525000D02*
X762900D01*
X733470Y518400D02*
X740070Y525000D01*
X791170Y521800D02*
X796300D01*
X723645Y522883D02*
X728127Y518400D01*
X728400D01*
X728300D02*
X728400D01*
X733470D01*
X722253Y521491D02*
X727344Y516400D01*
X734300D01*
X740800Y522900D01*
X762172D02*
X770372Y514700D01*
X740800Y522900D02*
X762172D01*
X770372Y514700D02*
X786400D01*
X788600Y512500D01*
X774300Y507700D02*
Y507800D01*
X719469Y518707D02*
X726000Y512176D01*
X736576D01*
X743000Y518600D02*
X759600D01*
X764100Y514100D01*
Y513000D02*
Y514100D01*
X736576Y512176D02*
X743000Y518600D01*
X718077Y517315D02*
X725292Y510100D01*
X737900D01*
X744100Y516300D01*
X753843D01*
X763443Y506700D01*
X716685Y515923D02*
X724708Y507900D01*
X739000D01*
X745000Y513900D01*
X752400D01*
X763443Y506700D02*
X768800D01*
X715293Y514531D02*
X724124Y505700D01*
X739628D01*
X745428Y511500D01*
X751800D01*
X763700Y499600D01*
Y497500D02*
Y499600D01*
X762000Y495800D02*
X763700Y497500D01*
X707300Y511389D02*
X709725Y508963D01*
X704500Y511405D02*
X708333Y507571D01*
X704500Y511405D02*
Y516400D01*
X707300Y511389D02*
Y516100D01*
X712500Y521300D01*
Y523600D01*
X710300Y525800D02*
X712500Y523600D01*
X704500Y516400D02*
X705700Y517600D01*
Y521200D01*
X699600Y513500D02*
Y516800D01*
Y513500D02*
X700400Y512700D01*
Y512721D02*
X706941Y506179D01*
X708900Y571300D02*
X723028D01*
X696500Y558900D02*
X708900Y571300D01*
X696500Y558600D02*
Y558900D01*
X762700Y546300D02*
X770000D01*
X693200Y558895D02*
X695667Y556429D01*
X693200Y558895D02*
Y561800D01*
X705200Y573800D01*
X709100Y543900D02*
X709900D01*
X713700Y540100D01*
X716900D01*
X717060D02*
X720861Y543901D01*
X717000Y540100D02*
X717060D01*
X716944Y537200D02*
X722253Y542509D01*
X709700Y537200D02*
X716944D01*
X723645Y541117D02*
X726800Y544273D01*
Y548500D01*
X725000Y550300D02*
X726800Y548500D01*
X730000Y544500D02*
X731500D01*
X728200Y542700D02*
X730000Y544500D01*
X725037Y539725D02*
X728111Y542800D01*
X692500Y504405D02*
X695667Y507571D01*
X658500Y508100D02*
X660672Y505928D01*
X658500Y508100D02*
Y508200D01*
X655200Y511500D02*
X658500Y508200D01*
X682500Y499973D02*
X692883Y510355D01*
X692500Y490900D02*
Y504405D01*
X712500Y494400D02*
X714700Y492200D01*
X688756Y503444D02*
X694275Y508963D01*
X688756Y500356D02*
Y503444D01*
X633000Y491500D02*
X640300Y484200D01*
X633000Y491500D02*
Y494000D01*
X640500Y501500D01*
X644100D01*
X671200Y505376D02*
X684531Y518707D01*
X683139Y520099D02*
X686240Y523200D01*
X692883Y510355D02*
X695700Y513173D01*
Y515043D01*
X695600Y514843D02*
Y517300D01*
X702000Y592000D02*
X702350Y592350D01*
X702500Y592500D01*
X702350Y592350D02*
X702400Y592300D01*
X641500Y522900D02*
X652900Y511500D01*
X655000D01*
X704400Y455600D02*
Y456200D01*
X704500Y456300D01*
X639400Y472200D02*
X644800Y466800D01*
X639400Y472200D02*
Y476400D01*
X644800Y466800D02*
X666800D01*
X639400Y476400D02*
X641500Y478500D01*
X640400Y484000D02*
X641500Y482900D01*
Y478500D02*
Y482900D01*
X640800Y490700D02*
X648100D01*
X660600Y503200D01*
X660672D02*
Y505928D01*
X674521Y525400D02*
X676179Y527059D01*
X670621Y521500D02*
X676179Y527059D01*
X666600Y521500D02*
X666700D01*
X670621D01*
X671800Y519895D02*
X677571Y525667D01*
X671800Y517300D02*
Y519895D01*
X686700Y506956D02*
X691491Y511747D01*
X644100Y501500D02*
X647900Y497700D01*
X652264Y492036D02*
X661428Y501200D01*
X661500D01*
X672200Y543705D02*
X677571Y538333D01*
X666900Y553500D02*
X667872D01*
X672200Y543705D02*
Y544500D01*
X671200Y502200D02*
Y505376D01*
X652264Y488700D02*
Y492036D01*
X695667Y556429D02*
X699700Y552395D01*
Y549300D02*
Y552395D01*
X548700Y483700D02*
X549100Y483300D01*
X701300Y370200D02*
X702400D01*
X703100D01*
X702100Y369900D02*
X702400Y370200D01*
X703400Y403000D02*
X703800Y403400D01*
Y403700D01*
X691800Y396000D02*
X691900Y396100D01*
X690626Y380000D02*
X696600D01*
X699100Y377500D02*
X708100D01*
X696600Y380000D02*
X699100Y377500D01*
X710720Y373820D02*
Y377339D01*
X708300Y371400D02*
X710720Y373820D01*
X704700Y371400D02*
X708300D01*
X701900Y368600D02*
X704700Y371400D01*
X701900Y367800D02*
Y368600D01*
X713279Y372520D02*
Y377339D01*
Y372520D02*
X718000Y367800D01*
X715839Y377339D02*
X720400Y381900D01*
Y384400D02*
X720600Y384600D01*
X720400Y387400D02*
X720600Y387200D01*
X719300Y393900D02*
X720400Y392800D01*
X716300Y393900D02*
X719300D01*
X716000Y394200D02*
X716300Y393900D01*
X720400Y387400D02*
Y392800D01*
X710600Y399600D02*
X710700D01*
Y396500D02*
X710800Y396400D01*
X713279Y394661D02*
Y401780D01*
X717100Y405600D01*
Y404900D02*
Y405600D01*
Y405800D01*
Y404900D02*
X730300Y391700D01*
Y391500D02*
Y391700D01*
X704000Y404000D02*
X705900Y402100D01*
Y397900D02*
Y402100D01*
Y397900D02*
X708200Y395600D01*
Y395200D02*
Y395600D01*
X703339Y389839D02*
X703939D01*
X708300Y394200D01*
X696220Y387280D02*
X703339D01*
X691900Y391600D02*
X696220Y387280D01*
X691900Y391600D02*
Y395500D01*
X692100Y395700D01*
X691800Y393100D02*
Y396000D01*
X692200D02*
Y396300D01*
X687079Y384720D02*
X703339D01*
X681900Y389900D02*
X687079Y384720D01*
X681900Y389900D02*
Y395700D01*
X681700Y395900D02*
X681900Y395700D01*
X652264Y488700D02*
X655764Y485200D01*
X656300D01*
X645000Y473400D02*
X656400Y484800D01*
X649050Y581050D02*
X649271Y581271D01*
X686800Y603700D02*
Y603800D01*
X726100Y499500D02*
X726600D01*
X734100D01*
X724000D02*
X726600D01*
X723400Y498900D02*
X724000Y499500D01*
X658270Y489830D02*
Y495230D01*
Y489830D02*
X667800Y480300D01*
Y477100D02*
Y480300D01*
X855100Y496500D02*
X855900Y497300D01*
X724485Y557741D02*
X740926Y541300D01*
X716705Y564800D02*
X729700D01*
X741300Y553200D01*
X748000D01*
X744300Y546700D02*
X758800D01*
X717689Y563000D02*
X728000D01*
X744300Y546700D01*
X709725Y555037D02*
X717689Y563000D01*
X717773Y560300D02*
X718200D01*
X711117Y553645D02*
X717773Y560300D01*
X703700Y382200D02*
X708400D01*
X710700Y384500D01*
X739728Y588000D02*
X741900D01*
X757200Y572700D01*
Y568840D02*
Y572700D01*
X738900Y590000D02*
X742700D01*
X755900Y560600D02*
X759800Y564500D01*
Y572900D01*
X742700Y590000D02*
X759800Y572900D01*
D39*
X780500Y522000D02*
X784377D01*
X778100Y524400D02*
X780500Y522000D01*
X820900Y491600D02*
Y515200D01*
X743400Y491700D02*
X743500Y491800D01*
X743400Y484700D02*
Y491700D01*
Y484700D02*
X745400Y482700D01*
Y471800D02*
Y482700D01*
X668000Y456800D02*
X668050D01*
X671000Y459750D01*
X726300Y460500D02*
X736551D01*
X716200Y450400D02*
X726300Y460500D01*
X716200Y445800D02*
Y450400D01*
X729300Y455500D02*
X736551D01*
X718100Y435000D02*
X722700Y439600D01*
Y448900D01*
X729300Y455500D01*
X729400Y465500D02*
X736551D01*
X720000Y474500D02*
X729100Y465400D01*
Y465400D02*
Y465400D01*
X736551Y470500D02*
X744000D01*
X744900Y471400D01*
X736551Y450500D02*
X743100D01*
X745400Y448200D01*
Y437600D02*
Y448200D01*
X768900Y436000D02*
X770500D01*
X767000Y434100D02*
X768900Y436000D01*
X748900Y434100D02*
X749000Y434000D01*
X745400Y437600D02*
X748900Y434100D01*
X748700D02*
X748900D01*
X767000D01*
X541800Y481326D02*
Y485300D01*
X720000Y485500D02*
X720900Y484600D01*
X727400D01*
X735900Y476100D01*
X677100Y404600D02*
Y404900D01*
X637889Y450111D02*
X638089D01*
D40*
X726900Y560300D02*
X727700Y559500D01*
X718200Y560300D02*
X726900D01*
D41*
X662000Y512000D02*
D03*
X618000Y546000D02*
D03*
D42*
X711497Y462502D02*
D03*
X654929Y504929D02*
D03*
X647858Y497858D02*
D03*
X640787Y490787D02*
D03*
X633716Y483716D02*
D03*
X626645Y476645D02*
D03*
X704426Y455432D02*
D03*
X697355Y448360D02*
D03*
X690284Y441289D02*
D03*
X683213Y434218D02*
D03*
X676142Y427147D02*
D03*
X736000Y422000D02*
D03*
X746000Y422000D02*
D03*
X614929Y451071D02*
D03*
X610929Y538929D02*
D03*
X604000Y518000D02*
D03*
X786000Y492000D02*
D03*
X788000Y466000D02*
D03*
X616000Y500000D02*
D03*
X634796Y564968D02*
D03*
X773085Y425982D02*
D03*
X635004Y427931D02*
D03*
X768631Y561558D02*
D03*
X703697Y496345D02*
D03*
X704000Y414000D02*
D03*
X698000Y580000D02*
D03*
D43*
X756000Y422000D02*
D03*
X594000Y518000D02*
D03*
X798000Y466000D02*
D03*
X708000Y580000D02*
D03*
X941716Y494000D02*
D03*
X933055D02*
D03*
X474945D02*
D03*
X466284D02*
D03*
D44*
X622000Y444000D02*
D03*
D45*
X784000Y532000D02*
D03*
D46*
X776929Y539071D02*
D03*
X769858Y546142D02*
D03*
X762787Y553213D02*
D03*
X755716Y560284D02*
D03*
X748645Y567355D02*
D03*
X741574Y574426D02*
D03*
X734503Y567355D02*
D03*
X741574Y560284D02*
D03*
X748645Y553213D02*
D03*
X762787Y539071D02*
D03*
X769858Y532000D02*
D03*
X776929Y524929D02*
D03*
X702000Y368000D02*
D03*
X798000Y514000D02*
D03*
X810000Y514000D02*
D03*
X810000Y476000D02*
D03*
X810000Y464000D02*
D03*
X718000Y368000D02*
D03*
X672000Y396000D02*
D03*
X682000D02*
D03*
X692000D02*
D03*
X718000Y614000D02*
D03*
X720000Y602000D02*
D03*
X770000Y446000D02*
D03*
X782000D02*
D03*
X640000Y516000D02*
D03*
X648000Y524000D02*
D03*
X628000Y538000D02*
D03*
X632000Y508000D02*
D03*
D47*
X704000Y266945D02*
D03*
Y258283D02*
D03*
X786000Y502000D02*
D03*
X616000Y490000D02*
D03*
X704000Y404000D02*
D03*
X700000Y731716D02*
D03*
Y723055D02*
D03*
D48*
X704000Y226000D02*
D03*
X974000Y494000D02*
D03*
X434000D02*
D03*
X700000Y764000D02*
D03*
D49*
X721716Y221079D02*
D03*
X686283D02*
D03*
X978921Y476284D02*
D03*
Y511717D02*
D03*
X429079Y476284D02*
D03*
Y511717D02*
D03*
X717717Y768921D02*
D03*
X682283D02*
D03*
D50*
X581500Y475500D02*
D03*
X845500Y503300D02*
D03*
X548500Y483300D02*
D03*
X556201Y487697D02*
D03*
X554600Y496800D02*
D03*
X635000Y542900D02*
D03*
X677200Y569000D02*
D03*
X658000Y547600D02*
D03*
X670300Y594700D02*
D03*
X665300Y547400D02*
D03*
X666700Y521500D02*
D03*
X848100Y509800D02*
D03*
X756000Y483900D02*
D03*
X788100Y543300D02*
D03*
X647600Y436800D02*
D03*
X686024Y368406D02*
D03*
X693300Y624900D02*
D03*
X855600Y497600D02*
D03*
X830100Y476500D02*
D03*
X798500Y500700D02*
D03*
X686800Y603700D02*
D03*
X589200Y476000D02*
D03*
X596200Y470600D02*
D03*
X671900Y445600D02*
D03*
X583300Y515300D02*
D03*
X588900Y510200D02*
D03*
X774000Y466300D02*
D03*
X801200Y456300D02*
D03*
X712200Y567200D02*
D03*
X709100Y543900D02*
D03*
X709600Y536900D02*
D03*
X750100Y531400D02*
D03*
X789300Y511700D02*
D03*
X763400Y512400D02*
D03*
X768800Y506300D02*
D03*
X769400Y496700D02*
D03*
X761400Y496100D02*
D03*
X704600Y521500D02*
D03*
X699600Y516800D02*
D03*
X709700Y526000D02*
D03*
X556200Y477900D02*
D03*
X702600Y591300D02*
D03*
X692700Y490500D02*
D03*
X734100Y499500D02*
D03*
X687400Y499100D02*
D03*
X646800Y542200D02*
D03*
X713600Y598400D02*
D03*
X671600Y516500D02*
D03*
X671300Y502000D02*
D03*
X667800Y476600D02*
D03*
X731900Y544000D02*
D03*
X743100Y534900D02*
D03*
X725000Y550300D02*
D03*
X697100Y546500D02*
D03*
M02*
