%FSLAX25Y25*%
%MOIN*%
G70*
G01*
G75*
G04 Layer_Physical_Order=2*
G04 Layer_Color=16711680*
%ADD10C,0.03000*%
%ADD11C,0.02000*%
%ADD12C,0.06000*%
G04:AMPARAMS|DCode=13|XSize=70mil|YSize=63mil|CornerRadius=0mil|HoleSize=0mil|Usage=FLASHONLY|Rotation=225.000|XOffset=0mil|YOffset=0mil|HoleType=Round|Shape=Rectangle|*
%AMROTATEDRECTD13*
4,1,4,0.00248,0.04702,0.04702,0.00248,-0.00248,-0.04702,-0.04702,-0.00248,0.00248,0.04702,0.0*
%
%ADD13ROTATEDRECTD13*%

G04:AMPARAMS|DCode=14|XSize=9.84mil|YSize=61.02mil|CornerRadius=0mil|HoleSize=0mil|Usage=FLASHONLY|Rotation=45.000|XOffset=0mil|YOffset=0mil|HoleType=Round|Shape=Round|*
%AMOVALD14*
21,1,0.05118,0.00984,0.00000,0.00000,135.0*
1,1,0.00984,0.01810,-0.01810*
1,1,0.00984,-0.01810,0.01810*
%
%ADD14OVALD14*%

G04:AMPARAMS|DCode=15|XSize=9.84mil|YSize=61.02mil|CornerRadius=0mil|HoleSize=0mil|Usage=FLASHONLY|Rotation=315.000|XOffset=0mil|YOffset=0mil|HoleType=Round|Shape=Round|*
%AMOVALD15*
21,1,0.05118,0.00984,0.00000,0.00000,45.0*
1,1,0.00984,-0.01810,-0.01810*
1,1,0.00984,0.01810,0.01810*
%
%ADD15OVALD15*%

%ADD16O,0.01181X0.05118*%
%ADD17O,0.05118X0.01181*%
%ADD18R,0.05118X0.01181*%
%ADD19O,0.08661X0.02362*%
G04:AMPARAMS|DCode=20|XSize=23.62mil|YSize=62.99mil|CornerRadius=0mil|HoleSize=0mil|Usage=FLASHONLY|Rotation=225.000|XOffset=0mil|YOffset=0mil|HoleType=Round|Shape=Rectangle|*
%AMROTATEDRECTD20*
4,1,4,-0.01392,0.03062,0.03062,-0.01392,0.01392,-0.03062,-0.03062,0.01392,-0.01392,0.03062,0.0*
%
%ADD20ROTATEDRECTD20*%

G04:AMPARAMS|DCode=21|XSize=55.12mil|YSize=66.93mil|CornerRadius=0mil|HoleSize=0mil|Usage=FLASHONLY|Rotation=225.000|XOffset=0mil|YOffset=0mil|HoleType=Round|Shape=Rectangle|*
%AMROTATEDRECTD21*
4,1,4,-0.00418,0.04315,0.04315,-0.00418,0.00418,-0.04315,-0.04315,0.00418,-0.00418,0.04315,0.0*
%
%ADD21ROTATEDRECTD21*%

%ADD22R,0.05118X0.00984*%
%ADD23O,0.05118X0.00984*%
%ADD24O,0.00984X0.05118*%
%ADD25R,0.06299X0.01181*%
%ADD26O,0.06299X0.01181*%
%ADD27R,0.09843X0.09843*%
%ADD28R,0.05118X0.04134*%
%ADD29R,0.26575X0.05118*%
%ADD30R,0.04134X0.05118*%
G04:AMPARAMS|DCode=31|XSize=41.34mil|YSize=51.18mil|CornerRadius=0mil|HoleSize=0mil|Usage=FLASHONLY|Rotation=225.000|XOffset=0mil|YOffset=0mil|HoleType=Round|Shape=Rectangle|*
%AMROTATEDRECTD31*
4,1,4,-0.00348,0.03271,0.03271,-0.00348,0.00348,-0.03271,-0.03271,0.00348,-0.00348,0.03271,0.0*
%
%ADD31ROTATEDRECTD31*%

G04:AMPARAMS|DCode=32|XSize=41.34mil|YSize=51.18mil|CornerRadius=0mil|HoleSize=0mil|Usage=FLASHONLY|Rotation=135.000|XOffset=0mil|YOffset=0mil|HoleType=Round|Shape=Rectangle|*
%AMROTATEDRECTD32*
4,1,4,0.03271,0.00348,-0.00348,-0.03271,-0.03271,-0.00348,0.00348,0.03271,0.03271,0.00348,0.0*
%
%ADD32ROTATEDRECTD32*%

%ADD33R,0.05118X0.26575*%
%ADD34C,0.07000*%
%ADD35C,0.01200*%
%ADD36C,0.04000*%
%ADD37C,0.01500*%
%ADD38C,0.01000*%
%ADD39C,0.02500*%
%ADD40C,0.01400*%
%ADD41P,0.08485X4X360.0*%
%ADD42C,0.06000*%
%ADD43R,0.06000X0.06000*%
%ADD44P,0.08485X4X270.0*%
%ADD45P,0.09900X4X180.0*%
%ADD46C,0.07000*%
%ADD47R,0.06000X0.06000*%
%ADD48C,0.27559*%
%ADD49C,0.06693*%
%ADD50C,0.05000*%
%ADD51C,0.05000*%
%ADD52C,0.02100*%
G04:AMPARAMS|DCode=53|XSize=51mil|YSize=55mil|CornerRadius=0mil|HoleSize=0mil|Usage=FLASHONLY|Rotation=45.000|XOffset=0mil|YOffset=0mil|HoleType=Round|Shape=Rectangle|*
%AMROTATEDRECTD53*
4,1,4,0.00141,-0.03748,-0.03748,0.00141,-0.00141,0.03748,0.03748,-0.00141,0.00141,-0.03748,0.0*
%
%ADD53ROTATEDRECTD53*%

%ADD54R,0.05100X0.05500*%
%ADD55C,0.03937*%
%ADD56C,0.01800*%
%ADD57C,0.07874*%
D10*
X700358Y241453D02*
X706854Y241409D01*
X721815Y220882D02*
Y232102D01*
X665800Y507900D02*
X674600Y499100D01*
X661850Y511850D02*
X665800Y507900D01*
X695100Y479900D02*
X711700Y463300D01*
X704531Y455432D02*
X711300Y462200D01*
X674600Y499100D02*
X687400D01*
Y487500D02*
Y499100D01*
Y487500D02*
X695000Y479900D01*
X967898Y511815D02*
X979118D01*
X958547Y490358D02*
X958591Y496854D01*
X449409Y491146D02*
X449453Y497642D01*
X428882Y476185D02*
X440102D01*
X682185Y757898D02*
Y769118D01*
X697146Y748591D02*
X703642Y748547D01*
D11*
X677600Y367642D02*
G03*
X648374Y406341I-138718J-74378D01*
G01*
X711700Y463200D02*
Y463300D01*
X695000Y479900D02*
X695100D01*
X542165Y482300D02*
X542400D01*
X541600D02*
X542165D01*
X545700Y479000D02*
X554246D01*
X555723Y477523D01*
X556000Y477800D01*
X556201Y487500D02*
Y487697D01*
X647300Y407600D02*
X648200Y406700D01*
X788500Y549300D02*
X793400Y544400D01*
Y542100D02*
X793900Y541600D01*
X691400Y608100D02*
X697400Y602100D01*
X681200Y608100D02*
X691400D01*
X675100Y602000D02*
X681200Y608100D01*
X791200Y528900D02*
Y532200D01*
X789300Y527000D02*
X791200Y528900D01*
X645619Y547100D02*
X650400D01*
X641859Y543340D02*
X645619Y547100D01*
X697500Y580000D02*
Y602100D01*
X670400Y594000D02*
X675100Y598700D01*
X660800Y558700D02*
X670100Y549400D01*
X663900Y556000D02*
X676900Y569000D01*
X677200D01*
X657800Y558700D02*
X660800D01*
X651300Y565200D02*
X657800Y558700D01*
X651300Y565200D02*
Y574200D01*
X670100Y545700D02*
Y549400D01*
X651300Y574200D02*
X670200Y593100D01*
X666900Y542500D02*
X670100Y545700D01*
X655000Y542500D02*
X666900D01*
X650400Y547100D02*
X655000Y542500D01*
X748645Y568000D02*
X755100D01*
X784200Y539200D02*
X788100Y543100D01*
X556201Y487697D02*
Y487992D01*
X671900Y445600D02*
Y446400D01*
X681750Y456250D01*
X788000Y466300D02*
X788300Y466000D01*
X708000Y580000D02*
X714000Y574000D01*
X728700D01*
X737300Y582600D01*
X743000D01*
X751100Y574500D01*
Y569600D02*
Y574500D01*
X789300Y511700D02*
Y527000D01*
X604000Y518000D02*
Y532200D01*
X610500Y538700D01*
X675100Y598700D02*
Y602000D01*
X711300Y462800D02*
X711700Y463200D01*
X610929Y538929D02*
X622369Y527489D01*
X626311D01*
X641900Y543078D01*
X841800Y507600D02*
X846350Y503050D01*
X841800Y507600D02*
Y512700D01*
X677600Y367642D02*
X685063D01*
X783187Y437200D02*
X788500Y442513D01*
D12*
X707900Y718200D02*
Y730800D01*
X691900Y717400D02*
Y731400D01*
X465300Y501600D02*
X484200D01*
X465000Y486000D02*
X483500D01*
D34*
X698456Y238449D02*
G03*
X691402Y210154I3477J-15894D01*
G01*
X716992Y210449D02*
G03*
X707523Y238272I-10039J12106D01*
G01*
X989551Y506992D02*
G03*
X961728Y497523I-12106J-10039D01*
G01*
X961551Y488456D02*
G03*
X989847Y481402I15894J3477D01*
G01*
X446449Y499544D02*
G03*
X418153Y506598I-15894J-3477D01*
G01*
X418449Y481008D02*
G03*
X446272Y490477I12106J10039D01*
G01*
X687008Y779551D02*
G03*
X696477Y751728I10039J-12106D01*
G01*
X705544Y751551D02*
G03*
X712598Y779846I-3477J15894D01*
G01*
X712071Y241453D02*
Y291059D01*
X695929Y241748D02*
Y291256D01*
X908744Y485929D02*
X958252D01*
X908941Y502071D02*
X958547D01*
X449453Y485929D02*
X499059D01*
X449748Y502071D02*
X499256D01*
X708071Y698744D02*
Y748252D01*
X691929Y698941D02*
Y748547D01*
X873571Y502071D02*
X908941D01*
X873300Y501800D02*
X873571Y502071D01*
X874329Y485929D02*
X908744D01*
X874300Y485900D02*
X874329Y485929D01*
D35*
X680328Y613450D02*
X693985D01*
X644400Y561500D02*
Y577523D01*
X680956Y611250D02*
X693073D01*
X647400Y561328D02*
Y577694D01*
X680956Y611250D01*
X644400Y577523D02*
X680328Y613450D01*
X618100Y545900D02*
X618800Y546600D01*
X629800D01*
X633500Y542900D01*
X635000D01*
X647400Y561328D02*
X657228Y551500D01*
X644400Y561500D02*
X658100Y547800D01*
X659615Y551500D02*
X663315Y547800D01*
X657228Y551500D02*
X659615D01*
X665500Y547500D02*
X665800Y547800D01*
X663315D02*
X665800D01*
X681050Y395050D02*
X685300Y390800D01*
X702400Y583700D02*
Y589400D01*
X739100Y537757D02*
X744500Y543157D01*
X739100Y526800D02*
Y537757D01*
Y526800D02*
X769200Y496700D01*
X755300Y530900D02*
X779600Y506600D01*
X751300Y530900D02*
X755300D01*
X751100Y531100D02*
X751300Y530900D01*
X776600Y525100D02*
Y525258D01*
X809830Y476000D02*
X810000D01*
X790900Y494930D02*
X809830Y476000D01*
X790900Y494930D02*
Y495100D01*
X789400Y496600D02*
X790900Y495100D01*
X789400Y496600D02*
Y496800D01*
X779600Y500137D02*
Y506600D01*
Y500137D02*
X782937Y496800D01*
X789400D01*
X789400Y496800D01*
X769400Y495300D02*
X773600Y491100D01*
Y478000D02*
Y491100D01*
X722300Y426700D02*
X773600Y478000D01*
X722300Y407600D02*
Y426700D01*
X685300Y390800D02*
X705500D01*
X722300Y407600D01*
X692000Y396000D02*
X706900D01*
X719900Y409000D01*
Y427200D02*
X771400Y478700D01*
Y486700D01*
X702400Y583700D02*
X703000Y583100D01*
Y570743D02*
Y583100D01*
X715857Y565200D02*
X726758D01*
X703000Y570743D02*
X710543Y563200D01*
X713857D01*
X715857Y565200D01*
X692700Y574000D02*
X710400Y556300D01*
X692600Y573900D02*
Y597700D01*
X686800Y603700D02*
X692700Y597800D01*
X736000Y522800D02*
X761400Y497400D01*
X699523Y604800D02*
X716600D01*
X693073Y611250D02*
X699523Y604800D01*
X700435Y607000D02*
X709700D01*
X693985Y613450D02*
X700435Y607000D01*
X716600Y604800D02*
X719200Y602200D01*
X709700Y607000D02*
X717200Y614500D01*
X717800D01*
X697500Y602100D02*
X709400D01*
X713300Y598200D01*
X710400Y556300D02*
X729100D01*
X744500Y543157D02*
Y547458D01*
X736000Y522800D02*
Y549400D01*
X729100Y556300D02*
X736000Y549400D01*
X726758Y565200D02*
X744500Y547458D01*
X761700Y496400D02*
X771400Y486700D01*
X548000Y484600D02*
Y492500D01*
X552300Y496800D01*
D36*
X774000Y466300D02*
X788000D01*
X581100Y476500D02*
X592500Y465100D01*
X610900D01*
X541600Y491900D02*
X551800Y502100D01*
X541600Y482300D02*
Y491900D01*
X551800Y502100D02*
X556795D01*
X558994Y499902D01*
X581100D01*
Y476500D02*
Y499902D01*
X697400Y448700D02*
X702800Y443300D01*
X715500Y430600D01*
X704000Y405100D02*
X715500Y416600D01*
Y430600D01*
X746000Y422000D02*
Y428000D01*
X755200Y437200D01*
X584100Y499902D02*
X615846D01*
X624200Y446400D02*
Y451800D01*
X621900Y444100D02*
X624200Y446400D01*
X610900Y465100D02*
X624200Y451800D01*
X755200Y437200D02*
X783187D01*
X788500Y442513D02*
Y465800D01*
D37*
X690024Y209465D02*
X717091D01*
X685700Y447000D02*
X686300Y447600D01*
X690900D01*
X676700Y438100D02*
X685600Y447000D01*
X665000Y438100D02*
X676700D01*
X633800Y469300D02*
X665000Y438100D01*
X633800Y470100D02*
X649600Y485900D01*
X633800Y469300D02*
Y470100D01*
X665800Y507900D02*
Y508100D01*
X649600Y491700D02*
X665800Y507900D01*
X649600Y485900D02*
Y491700D01*
X690900Y447600D02*
X704000Y434500D01*
Y414000D02*
Y434500D01*
X555900Y478200D02*
X556100Y478000D01*
X697400Y602100D02*
X697500D01*
X848100Y506655D02*
X850727Y504027D01*
X848100Y506655D02*
Y509800D01*
X851077Y503677D02*
X856177Y498577D01*
X685063Y367642D02*
X685236Y367815D01*
X748800Y567300D02*
X748950Y567450D01*
X692700Y370900D02*
X692800Y370800D01*
X704426Y455432D02*
X704531D01*
X648374Y406341D02*
Y406626D01*
Y406051D02*
Y406341D01*
X990535Y480024D02*
Y507091D01*
X417465Y480909D02*
Y507976D01*
X686909Y780535D02*
X713976D01*
D38*
X674539Y383997D02*
G03*
X666393Y394975I-130362J-88207D01*
G01*
X682100Y440500D02*
X684400D01*
X681500Y439900D02*
X682100Y440500D01*
X681500Y439700D02*
Y439900D01*
X677850Y436050D02*
X681500Y439700D01*
X663907Y436050D02*
X677850D01*
X631064Y468893D02*
X663907Y436050D01*
X663028Y434100D02*
X676200D01*
X628664Y468464D02*
X663028Y434100D01*
X709100Y358500D02*
X717700Y367100D01*
X702200Y358500D02*
X709100D01*
X695450Y365250D02*
X702200Y358500D01*
X666550Y407250D02*
X676800Y417500D01*
X666393Y394975D02*
Y406993D01*
X666700Y407300D01*
X652700Y540000D02*
X693000D01*
X640486Y538000D02*
X694072D01*
X641315Y536000D02*
X694900D01*
X642143Y534000D02*
X699100D01*
X642972Y532000D02*
X704386D01*
X653900Y529800D02*
X705015D01*
X658872Y527700D02*
X705743D01*
X648772Y517600D02*
X658872Y527700D01*
X659700Y525700D02*
X709400D01*
X629300Y495300D02*
X659700Y525700D01*
X809600Y464000D02*
X816700Y471100D01*
X755050Y534750D02*
X755200Y534600D01*
X782500Y507300D01*
X754600Y535200D02*
X755200Y534600D01*
X743400Y535200D02*
X754600D01*
X743100Y534900D02*
X743400Y535200D01*
X782500Y507300D02*
X790900D01*
X762787Y538713D02*
Y539071D01*
X798500Y500700D02*
X821600Y477600D01*
X764858Y544071D02*
X774858Y534071D01*
Y533942D02*
Y534071D01*
Y533942D02*
X776500Y532300D01*
X784400D01*
X609279Y491400D02*
X613179Y495300D01*
X589200Y476000D02*
X604500Y491300D01*
Y491400D02*
X609279D01*
X596200Y470600D02*
X597200D01*
X611400Y484800D01*
X619700D01*
X622500Y487600D01*
X583050Y507550D02*
X585664Y504936D01*
X588900Y510200D02*
X593100D01*
X596364Y506936D01*
X793000Y495800D02*
Y505200D01*
Y495800D02*
X804700Y484100D01*
X811500D01*
X816700Y478900D01*
Y471100D02*
Y478900D01*
X790900Y507300D02*
X793000Y505200D01*
X769900Y458100D02*
X782000Y446000D01*
X764800Y504643D02*
Y512300D01*
Y504643D02*
X767900Y501543D01*
X769900Y458100D02*
Y468300D01*
X777600Y476000D01*
Y499167D01*
X777500Y499267D02*
X777600Y499167D01*
X777500Y499267D02*
Y502900D01*
X773900Y506500D02*
X777500Y502900D01*
X768900Y506500D02*
X773900D01*
X768700Y506300D02*
X768900Y506500D01*
X767900Y501543D02*
X774057D01*
X775500Y500100D01*
Y498339D02*
Y500100D01*
Y498339D02*
X775600Y498239D01*
Y476828D02*
Y498239D01*
X767900Y469128D02*
X775600Y476828D01*
X767900Y451086D02*
Y469128D01*
Y451086D02*
X769400Y449586D01*
Y446400D02*
Y446600D01*
Y449586D01*
Y446600D02*
X769600Y446400D01*
X767900Y448100D02*
X769400Y446600D01*
X719900Y409000D02*
Y427200D01*
X694900Y536000D02*
X710450Y551550D01*
X709700Y526000D02*
Y526700D01*
X704600Y521500D02*
X711300D01*
X626645Y476645D02*
Y489900D01*
X714200Y524300D02*
Y524400D01*
Y527400D01*
Y524400D02*
X714400Y524600D01*
X629300Y488300D02*
X633400Y484200D01*
X613179Y495300D02*
X617664D01*
X620500Y498136D01*
X709400Y525700D02*
X709700Y526000D01*
X711300Y521500D02*
X714200Y524400D01*
X711600Y530000D02*
X714200Y527400D01*
X716400Y523672D02*
Y524100D01*
X699600Y516800D02*
X709528D01*
X716400Y523672D01*
Y524100D02*
X716600Y524300D01*
Y528600D01*
X712900Y532300D02*
X716600Y528600D01*
X596364Y506936D02*
X615051D01*
X585664Y504936D02*
X615879D01*
X618900Y480300D02*
X624500Y485900D01*
X618900Y475400D02*
Y480300D01*
Y475400D02*
X666800Y427500D01*
X675800D01*
X624500Y485900D02*
Y510700D01*
X615879Y504936D02*
X618500Y507557D01*
Y513185D01*
X615051Y506936D02*
X616500Y508385D01*
Y514014D01*
X622500Y487600D02*
Y511528D01*
X620500Y498136D02*
Y512357D01*
X639500Y525700D02*
X649800D01*
X653900Y529800D01*
X626700Y490272D02*
Y510200D01*
X633215Y516714D01*
X624500Y510700D02*
X624700Y510900D01*
Y511028D01*
X632386Y518715D01*
X632514D01*
X639500Y525700D01*
X622500Y511528D02*
X622700Y511728D01*
Y511857D01*
X631558Y520715D01*
X631686D01*
X642972Y532000D01*
X620700Y512685D02*
X630729Y522715D01*
X630858D02*
X642143Y534000D01*
X618500Y513185D02*
X618700Y513385D01*
Y513514D01*
X629901Y524715D01*
X630029D01*
X641315Y536000D01*
X616500Y514014D02*
X616700Y514214D01*
Y514342D01*
X629072Y526715D01*
X629201D01*
X640486Y538000D01*
X633215Y516714D02*
X633429Y516500D01*
X640100D01*
X632000Y508000D02*
X637100Y503000D01*
X712200Y567200D02*
X727600D01*
X729502Y565298D01*
Y565284D02*
Y565298D01*
X750716Y544071D02*
X764858D01*
X708043Y530000D02*
X711600D01*
X707515Y532300D02*
X712900D01*
X705743Y527700D02*
X708043Y530000D01*
X705015Y529800D02*
X707515Y532300D01*
X699100Y534000D02*
X709050Y543950D01*
X704386Y532000D02*
X709343Y536957D01*
X710450Y551550D02*
X723550D01*
X724500Y550600D01*
X694072Y538000D02*
X710372Y554300D01*
X761400Y496100D02*
Y497400D01*
X712300Y497800D02*
X712500Y498000D01*
X711900Y497800D02*
X712300D01*
X712500Y495900D02*
Y498000D01*
X707500Y490900D02*
X712500Y495900D01*
X718300Y498000D02*
X732100D01*
X646800Y542200D02*
X650500D01*
X652700Y540000D01*
X693000D02*
X697800Y544800D01*
X629300Y488300D02*
Y495300D01*
X641800Y517600D02*
X648772D01*
X658328Y521500D02*
X666700D01*
X639307Y502372D02*
Y502479D01*
X637728Y500793D02*
X639307Y502372D01*
X637621Y500793D02*
X637728D01*
X633264Y491136D02*
Y496436D01*
X639458Y481958D02*
Y484942D01*
X628664Y468464D02*
Y471164D01*
X676200Y434100D02*
X682700Y427600D01*
Y423200D02*
Y427600D01*
X639307Y502479D02*
X658328Y521500D01*
X633264Y496436D02*
X637621Y500793D01*
X633264Y491136D02*
X639458Y484942D01*
X628664Y471164D02*
X639458Y481958D01*
X664100Y516500D02*
X671600D01*
X661500Y519100D02*
X664100Y516500D01*
X658864Y519100D02*
X661500D01*
X641032Y501268D02*
X658864Y519100D01*
X641032Y497668D02*
Y501268D01*
Y497668D02*
X646600Y492100D01*
Y486272D02*
Y492100D01*
X631064Y468893D02*
Y470736D01*
X646600Y486272D01*
X684400Y440500D02*
X690300Y434600D01*
Y427400D02*
Y434600D01*
X677000Y414100D02*
X690300Y427400D01*
X687089Y380400D02*
X695450Y372039D01*
X677888Y380400D02*
X687089D01*
X676900Y417400D02*
X682700Y423200D01*
X677000Y393729D02*
Y414100D01*
X676800Y393529D02*
X677000Y393729D01*
X676800Y386400D02*
Y393529D01*
Y386400D02*
X680800Y382400D01*
X687918D01*
X699818Y370500D01*
X700700D01*
X729502Y565284D02*
X732432Y562355D01*
X732445D01*
X736574Y558226D01*
X710372Y554300D02*
X726657D01*
X732300Y548657D01*
Y543900D02*
Y548657D01*
X736574Y558213D02*
Y558226D01*
Y558213D02*
X739502Y555284D01*
X739516D01*
X743645Y551155D01*
Y551142D02*
Y551155D01*
Y551142D02*
X750716Y544071D01*
X583050Y507550D02*
Y514950D01*
X583400Y515300D01*
X695450Y365250D02*
Y372039D01*
X717700Y367100D02*
Y367500D01*
X674344Y383944D02*
X677888Y380400D01*
X821600Y477600D02*
X829400D01*
X830000Y477000D01*
X692500Y490900D02*
X707500D01*
X548000Y484600D02*
X549700Y482900D01*
X552300Y496800D02*
X554600D01*
D39*
X723200Y624700D02*
G03*
X753537Y582027I141667J68594D01*
G01*
X624563Y432562D02*
G03*
X561500Y475500I-117475J-104759D01*
G01*
X793899Y541601D02*
G03*
X840785Y513210I100232J112617D01*
G01*
X801700Y449986D02*
Y455100D01*
X771500Y431900D02*
X783614D01*
X801700Y449986D01*
X542165Y482300D02*
X545083Y479383D01*
X556201Y487500D02*
X561600Y482101D01*
Y476870D02*
Y482101D01*
X643600Y415600D02*
X647300Y411900D01*
Y407600D02*
Y411900D01*
X769900Y567900D02*
X774700Y563100D01*
X767700Y567900D02*
X769900D01*
X774700Y556700D02*
Y563100D01*
Y556700D02*
X782100Y549300D01*
X793400Y542100D02*
Y544400D01*
X782100Y549300D02*
X788500D01*
X711809Y355600D02*
X716722Y360513D01*
X701500Y355600D02*
X711809D01*
X716722Y360513D02*
X723600D01*
X755600Y484300D02*
X755700Y484200D01*
X743300Y484300D02*
X755600D01*
X743300Y483800D02*
Y484300D01*
X702800Y443300D02*
X743300Y483800D01*
X769858Y532000D02*
X776600Y525258D01*
X762787Y538713D02*
X769600Y531900D01*
X704000Y404000D02*
Y405100D01*
X800900Y455900D02*
X801700Y455100D01*
X726600Y372100D02*
X734300Y379800D01*
X726600Y363513D02*
Y372100D01*
X723600Y360513D02*
X726600Y363513D01*
X701144Y355950D02*
X701150D01*
X701500Y355600D01*
X692700Y364394D02*
X701144Y355950D01*
X692700Y364394D02*
Y370900D01*
X697355Y448360D02*
Y451145D01*
X671806Y476800D02*
X687303Y461303D01*
X667600Y476800D02*
X671806D01*
X687100Y461400D02*
X697355Y451145D01*
X694300Y624800D02*
X722800D01*
X650900Y408800D02*
Y415800D01*
X647000Y419700D02*
X650900Y415800D01*
X647000Y419700D02*
Y430100D01*
X647200Y430300D01*
X643600Y415600D02*
Y429800D01*
X629362Y432562D02*
X631200Y434400D01*
X639000D01*
X643600Y429800D01*
X624563Y432562D02*
X629362D01*
X690286Y373314D02*
X692700Y370900D01*
X678200Y373314D02*
X690286D01*
X734300Y379800D02*
Y397700D01*
X750500Y413900D02*
X758000D01*
X765900Y421800D01*
Y426100D01*
X734300Y397700D02*
X750500Y413900D01*
X647200Y430300D02*
Y436800D01*
X647400Y437000D01*
X765750Y426150D02*
X771500Y431900D01*
X754000Y581500D02*
X767450Y568050D01*
D41*
X662000Y512000D02*
D03*
X618000Y546000D02*
D03*
D42*
X711497Y462502D02*
D03*
X654929Y504929D02*
D03*
X647858Y497858D02*
D03*
X640787Y490787D02*
D03*
X633716Y483716D02*
D03*
X626645Y476645D02*
D03*
X704426Y455432D02*
D03*
X697355Y448360D02*
D03*
X690284Y441289D02*
D03*
X683213Y434218D02*
D03*
X676142Y427147D02*
D03*
X736000Y422000D02*
D03*
X746000Y422000D02*
D03*
X614929Y451071D02*
D03*
X610929Y538929D02*
D03*
X604000Y518000D02*
D03*
X786000Y492000D02*
D03*
X788000Y466000D02*
D03*
X616000Y500000D02*
D03*
X634796Y564968D02*
D03*
X773085Y425982D02*
D03*
X635004Y427931D02*
D03*
X768631Y561558D02*
D03*
X703697Y496345D02*
D03*
X704000Y414000D02*
D03*
X698000Y580000D02*
D03*
D43*
X756000Y422000D02*
D03*
X594000Y518000D02*
D03*
X798000Y466000D02*
D03*
X708000Y580000D02*
D03*
X941716Y494000D02*
D03*
X933055D02*
D03*
X474945D02*
D03*
X466284D02*
D03*
D44*
X622000Y444000D02*
D03*
D45*
X784000Y532000D02*
D03*
D46*
X776929Y539071D02*
D03*
X769858Y546142D02*
D03*
X762787Y553213D02*
D03*
X755716Y560284D02*
D03*
X748645Y567355D02*
D03*
X741574Y574426D02*
D03*
X734503Y567355D02*
D03*
X741574Y560284D02*
D03*
X748645Y553213D02*
D03*
X762787Y539071D02*
D03*
X769858Y532000D02*
D03*
X776929Y524929D02*
D03*
X702000Y368000D02*
D03*
X798000Y514000D02*
D03*
X810000Y514000D02*
D03*
X810000Y476000D02*
D03*
X810000Y464000D02*
D03*
X718000Y368000D02*
D03*
X672000Y396000D02*
D03*
X682000D02*
D03*
X692000D02*
D03*
X718000Y614000D02*
D03*
X720000Y602000D02*
D03*
X770000Y446000D02*
D03*
X782000D02*
D03*
X640000Y516000D02*
D03*
X648000Y524000D02*
D03*
X628000Y538000D02*
D03*
X632000Y508000D02*
D03*
D47*
X704000Y266945D02*
D03*
Y258283D02*
D03*
X786000Y502000D02*
D03*
X616000Y490000D02*
D03*
X704000Y404000D02*
D03*
X700000Y731716D02*
D03*
Y723055D02*
D03*
D48*
X704000Y226000D02*
D03*
X974000Y494000D02*
D03*
X434000D02*
D03*
X700000Y764000D02*
D03*
D49*
X721716Y221079D02*
D03*
X686283D02*
D03*
X978921Y476284D02*
D03*
Y511717D02*
D03*
X429079Y476284D02*
D03*
Y511717D02*
D03*
X717717Y768921D02*
D03*
X682283D02*
D03*
D50*
X581500Y475500D02*
D03*
X845500Y503300D02*
D03*
X548500Y483300D02*
D03*
X556201Y487697D02*
D03*
X554600Y496800D02*
D03*
X635000Y542900D02*
D03*
X677200Y569000D02*
D03*
X658000Y547600D02*
D03*
X670300Y594700D02*
D03*
X665300Y547400D02*
D03*
X666700Y521500D02*
D03*
X848100Y509800D02*
D03*
X756000Y483900D02*
D03*
X788100Y543300D02*
D03*
X647600Y436800D02*
D03*
X686024Y368406D02*
D03*
X693300Y624900D02*
D03*
X855600Y497600D02*
D03*
X830100Y476500D02*
D03*
X798500Y500700D02*
D03*
X686800Y603700D02*
D03*
X589200Y476000D02*
D03*
X596200Y470600D02*
D03*
X671900Y445600D02*
D03*
X583300Y515300D02*
D03*
X588900Y510200D02*
D03*
X774000Y466300D02*
D03*
X801200Y456300D02*
D03*
X712200Y567200D02*
D03*
X709100Y543900D02*
D03*
X709600Y536900D02*
D03*
X750100Y531400D02*
D03*
X789300Y511700D02*
D03*
X763400Y512400D02*
D03*
X768800Y506300D02*
D03*
X769400Y496700D02*
D03*
X761400Y496100D02*
D03*
X704600Y521500D02*
D03*
X699600Y516800D02*
D03*
X709700Y526000D02*
D03*
X556200Y477900D02*
D03*
X702600Y591300D02*
D03*
X692700Y490500D02*
D03*
X734100Y499500D02*
D03*
X687400Y499100D02*
D03*
X646800Y542200D02*
D03*
X713600Y598400D02*
D03*
X671600Y516500D02*
D03*
X671300Y502000D02*
D03*
X667800Y476600D02*
D03*
X731900Y544000D02*
D03*
X743100Y534900D02*
D03*
X725000Y550300D02*
D03*
X697100Y546500D02*
D03*
D51*
X705870Y210154D02*
G03*
X719846Y226000I-935J14911D01*
G01*
X688547Y226394D02*
G03*
X702720Y209661I15453J-1279D01*
G01*
X973606Y478547D02*
G03*
X990339Y492721I1279J15453D01*
G01*
X989847Y495870D02*
G03*
X974000Y509846I-14911J-935D01*
G01*
X418153Y492130D02*
G03*
X434000Y478154I14911J935D01*
G01*
X434394Y509453D02*
G03*
X417661Y495280I-1279J-15453D01*
G01*
X715453Y763606D02*
G03*
X701279Y780339I-15453J1279D01*
G01*
X698130Y779846D02*
G03*
X684154Y764000I935J-14911D01*
G01*
X707700Y718000D02*
X707900Y718200D01*
X691900Y717400D02*
X693400Y715900D01*
D52*
X677900Y373500D02*
G03*
X651052Y408386I-132381J-74104D01*
G01*
D53*
X682000Y456000D02*
D03*
X687303Y461303D02*
D03*
D54*
X718000Y498000D02*
D03*
X710500D02*
D03*
D55*
X691598Y207693D02*
X716795D01*
X690516Y208480D02*
X690909D01*
X688252Y210744D02*
X690516Y208480D01*
X716795Y207890D02*
X716894D01*
X719158Y210154D01*
X989847Y509158D02*
X992110Y506894D01*
Y506795D02*
Y506894D01*
X989256Y478252D02*
X991520Y480516D01*
Y480909D01*
X992307Y481598D02*
Y506795D01*
X415693Y481205D02*
Y506402D01*
X416480Y507091D02*
Y507484D01*
X418744Y509748D01*
X415890Y481106D02*
Y481205D01*
Y481106D02*
X418153Y478842D01*
X684842Y779846D02*
X687106Y782110D01*
X687205D01*
X713484Y781520D02*
X715748Y779256D01*
X713091Y781520D02*
X713484D01*
X687205Y782307D02*
X712402D01*
D56*
X755400Y568000D02*
X791200Y532200D01*
D57*
X712046Y304452D02*
X720765Y353903D01*
X518931Y485889D02*
X530155Y483910D01*
X513944Y501416D02*
X543254Y506860D01*
X483963Y486991D02*
X516985D01*
X484741Y500496D02*
X511045D01*
X686799Y642831D02*
X691707Y672235D01*
X707831Y668597D02*
X715126Y648556D01*
X693196Y673313D02*
Y716800D01*
X707692Y672253D02*
X707692Y716942D01*
X852377Y478166D02*
X880296Y488617D01*
X856376Y507970D02*
X875977Y500836D01*
X686741Y359213D02*
X697721Y300102D01*
Y289679D02*
Y300102D01*
Y289679D02*
X697800Y289600D01*
X710500Y302907D02*
X712046Y304452D01*
X710500Y287800D02*
Y302907D01*
Y287800D02*
X710900Y287400D01*
M02*
